# Blender v2.79 (sub 0) OBJ File: 'robo_posed.blend'
# www.blender.org
mtllib robo.mtl
o robo_Untitled.015
v 0.018064 0.746784 -0.085323
v 0.018064 0.746786 0.105385
v 0.068276 0.569400 -0.085321
v 0.068275 0.569402 0.105387
v 0.021034 0.782407 -0.128356
v 0.021031 0.782415 0.172662
v -0.171869 0.731737 -0.128356
v -0.171872 0.731745 0.172661
v 0.240813 0.485744 -0.128348
v 0.240810 0.485752 0.172669
v 0.194459 0.450862 -0.128348
v 0.194456 0.450870 0.172669
v 0.299113 0.820394 -0.096162
v 0.299111 0.820399 0.142831
v 0.006580 0.750148 -0.096162
v 0.006577 0.750154 0.142831
v 0.347785 0.670921 -0.096156
v 0.347783 0.670926 0.142837
v 0.073850 0.543559 -0.096156
v 0.073847 0.543566 0.142836
v 0.318905 0.875830 -0.128910
v 0.318903 0.875836 0.175309
v 0.241376 0.841406 -0.121034
v 0.241373 0.841411 0.167433
v 0.394704 0.643049 -0.128903
v 0.394702 0.643055 0.175315
v 0.311769 0.625223 -0.121028
v 0.311768 0.625229 0.167440
v 0.351975 0.840803 -0.097963
v 0.351973 0.840809 0.140622
v 0.400061 0.693129 -0.097958
v 0.400059 0.693134 0.140628
v 0.177742 0.010927 -0.134242
v 0.104985 0.136949 -0.134594
v -0.040532 0.136951 -0.134595
v -0.113292 0.010930 -0.134245
v -0.040535 -0.115092 -0.133894
v 0.104982 -0.115093 -0.133893
v 0.405957 0.010911 -0.128710
v 0.219094 0.334569 -0.126783
v -0.154638 0.334572 -0.126786
v -0.341507 0.010918 -0.128718
v -0.154644 -0.312740 -0.130645
v 0.219088 -0.312743 -0.130641
v 0.405954 0.009264 0.147646
v 0.219091 0.332922 0.149574
v -0.154641 0.332925 0.149570
v -0.341510 0.009271 0.147638
v -0.154647 -0.314387 0.145712
v 0.219085 -0.314391 0.145714
v -0.100241 0.716161 -0.085323
v -0.100243 0.716161 0.105385
v -0.135824 0.311107 -0.109466
v -0.135827 0.311106 0.129526
v 0.083973 0.708983 -0.085321
v 0.083970 0.708983 0.105387
v 0.141441 0.310112 -0.109463
v 0.141438 0.310112 0.129529
v 0.709770 1.050671 -0.093344
v 0.709770 1.050671 0.155634
v 0.679189 0.946027 -0.133943
v 0.679189 0.946027 0.196232
v 0.802824 0.924977 -0.093344
v 0.802823 0.924977 0.155634
v 0.729090 0.787647 -0.133943
v 0.729090 0.787646 0.196232
v 0.562975 0.857259 -0.145237
v 0.562975 0.857258 0.205655
v 0.615402 0.729461 -0.145237
v 0.615402 0.729461 0.205655
v 0.603698 1.031228 -0.046152
v 0.603698 1.031228 0.108441
v 0.443871 0.858820 -0.133943
v 0.443871 0.858820 0.196232
v 0.500373 0.685391 -0.133943
v 0.500373 0.685391 0.196232
v 0.551182 0.893476 0.277879
v 0.591881 0.801695 0.301918
v 0.443931 0.858637 0.221915
v 0.496318 0.697842 0.221915
v 0.610714 0.987719 0.196232
v 0.662737 0.931112 0.196232
v 0.610714 0.987719 0.243948
v 0.662737 0.931112 0.243948
v 0.352003 0.840789 -0.083372
v 0.351993 0.840819 0.127252
v 0.400245 0.693200 -0.083372
v 0.400253 0.693177 0.127252
v 0.383497 0.828308 -0.046796
v 0.383490 0.828327 0.090676
v 0.421905 0.710773 -0.046796
v 0.421910 0.710757 0.090676
vt 0.666009 0.123067
vt 0.666047 0.113982
vt 0.723864 0.113788
vt 0.735568 0.142745
vt 0.864565 0.859907
vt 0.852741 0.888815
vt 0.809110 0.870971
vt 0.820934 0.842062
vt 0.004132 0.708794
vt 0.010674 0.662138
vt 0.047737 0.667334
vt 0.041196 0.713991
vt 0.913693 0.688147
vt 0.913693 0.641008
vt 0.971510 0.641008
vt 0.971511 0.688147
vt 0.751294 0.870537
vt 0.751294 0.861452
vt 0.618870 0.122873
vt 0.618908 0.113788
vt 0.072310 0.668814
vt 0.075158 0.716036
vt 0.814186 0.697732
vt 0.812819 0.684461
vt 0.851156 0.684460
vt 0.849790 0.697731
vt 0.981272 0.356590
vt 0.989148 0.350208
vt 0.989148 0.399411
vt 0.981099 0.393589
vt 0.112517 0.713783
vt 0.109668 0.666561
vt 0.133885 0.662138
vt 0.145987 0.707670
vt 0.957170 0.393417
vt 0.949522 0.399378
vt 0.949464 0.350493
vt 0.956972 0.356908
vt 0.704316 0.963920
vt 0.705683 0.950649
vt 0.741287 0.950648
vt 0.742654 0.963919
vt 0.471943 0.975163
vt 0.426769 0.975163
vt 0.425535 0.961879
vt 0.473176 0.961879
vt 0.857564 0.829993
vt 0.821738 0.829993
vt 0.828959 0.824340
vt 0.850298 0.824682
vt 0.527848 0.961879
vt 0.529081 0.975163
vt 0.481441 0.975163
vt 0.482674 0.961879
vt 0.263102 0.623034
vt 0.307088 0.640535
vt 0.292086 0.654864
vt 0.260049 0.639122
vt 0.038314 0.944994
vt 0.049708 0.964729
vt 0.038315 0.984464
vt 0.015527 0.984464
vt 0.004132 0.964729
vt 0.015526 0.944994
vt 0.399102 0.985186
vt 0.361676 0.985186
vt 0.365457 0.922078
vt 0.395322 0.922078
vt 0.408192 0.786452
vt 0.349666 0.786452
vt 0.349666 0.743174
vt 0.408192 0.743174
vt 0.708365 0.162091
vt 0.737629 0.212776
vt 0.708366 0.263462
vt 0.649840 0.263462
vt 0.620576 0.212777
vt 0.649839 0.162092
vt 0.466719 0.786452
vt 0.466719 0.743174
vt 0.620576 0.300991
vt 0.671261 0.271727
vt 0.721947 0.300990
vt 0.721947 0.359517
vt 0.671261 0.388780
vt 0.620576 0.359517
vt 0.291140 0.786452
vt 0.232613 0.786452
vt 0.232613 0.743174
vt 0.291140 0.743174
vt 0.583772 0.786452
vt 0.525245 0.786452
vt 0.525245 0.743174
vt 0.583772 0.743174
vt 0.699234 0.817358
vt 0.708456 0.754813
vt 0.737308 0.753794
vt 0.742654 0.817357
vt 0.887107 0.778602
vt 0.825647 0.793420
vt 0.821738 0.750176
vt 0.885524 0.749776
vt 0.895372 0.818886
vt 0.942512 0.818886
vt 0.942511 0.891175
vt 0.895372 0.891175
vt 0.823721 0.712802
vt 0.887107 0.719953
vt 0.305715 0.565203
vt 0.326487 0.573151
vt 0.311429 0.599526
vt 0.304488 0.582399
vt 0.358737 0.628441
vt 0.361249 0.618093
vt 0.377109 0.626261
vt 0.372039 0.636104
vt 0.071321 0.865225
vt 0.060231 0.858859
vt 0.070448 0.843184
vt 0.073629 0.845645
vt 0.029510 0.811609
vt 0.044736 0.804837
vt 0.070855 0.824982
vt 0.004132 0.844515
vt 0.045077 0.876092
vt 0.023303 0.881812
vt 0.004132 0.867027
vt 0.280476 0.579797
vt 0.273690 0.595667
vt 0.277330 0.959071
vt 0.322504 0.959071
vt 0.322504 0.994675
vt 0.277330 0.994675
vt 0.319213 0.621006
vt 0.267607 0.608668
vt 0.279169 0.563764
vt 0.278388 0.546751
vt 0.308434 0.543113
vt 0.016718 0.825300
vt 0.311050 0.642547
vt 0.329505 0.669159
vt 0.306224 0.683365
vt 0.055688 0.880186
vt 0.063046 0.881489
vt 0.335226 0.636306
vt 0.343273 0.603480
vt 0.377109 0.593952
vt 0.349197 0.649663
vt 0.856760 0.802117
vt 0.849320 0.806245
vt 0.829713 0.806327
vt 0.822258 0.801685
vt 0.874998 0.544321
vt 0.874998 0.515452
vt 0.904863 0.515452
vt 0.904863 0.544321
vt 0.260286 0.570953
vt 0.246352 0.599291
vt 0.235236 0.619602
vt 0.232613 0.638229
vn -0.0000 0.0000 1.0000
vn -0.2541 0.9672 -0.0000
vn -0.2335 0.9724 -0.0000
vn 0.8035 0.5953 -0.0000
vn 0.0000 -0.0000 -1.0000
vn 0.6013 -0.7990 0.0000
vn -0.0884 -0.0287 0.9957
vn 0.9943 -0.1064 0.0000
vn 0.4216 -0.9068 0.0000
vn 0.7271 0.6865 -0.0000
vn -0.0884 -0.0288 -0.9957
vn 0.2101 -0.9777 0.0000
vn -0.3685 -0.9296 0.0001
vn -0.4058 0.9140 -0.0000
vn -0.0771 -0.9970 0.0017
vn -0.0776 -0.9970 -0.0000
vn 0.7915 0.2577 -0.5541
vn 0.8176 0.2662 0.5106
vn 0.9509 0.3096 0.0000
vn 0.0000 -0.0028 -1.0000
vn 0.9898 0.1426 0.0000
vn 0.9897 0.1428 0.0001
vn 0.8660 -0.5000 -0.0030
vn 0.0000 0.0060 -1.0000
vn -0.0000 -1.0000 -0.0060
vn -0.0000 -0.0060 1.0000
vn 0.0000 1.0000 0.0060
vn -0.8660 0.5000 0.0030
vn -0.8660 -0.5000 -0.0030
vn 0.8660 0.5000 0.0030
vn 0.0006 0.0582 0.9983
vn 0.0011 0.0600 0.9982
vn 0.0015 0.0614 0.9981
vn 0.0022 0.0590 -0.9983
vn 0.0011 0.0600 -0.9982
vn -0.0003 0.0611 -0.9981
vn -0.6085 -0.7936 0.0000
vn -0.9962 0.0875 -0.0000
vn -0.9962 0.0876 -0.0003
vn 0.3332 0.1677 0.9278
vn 0.3339 0.1685 0.9274
vn 0.7363 0.6767 0.0000
vn -0.0368 0.9364 -0.3491
vn -0.0373 0.9361 -0.3497
vn -0.1924 0.9813 -0.0001
vn -0.7476 -0.6642 0.0007
vn -0.7485 -0.6632 -0.0000
vn 0.8810 -0.4730 0.0000
vn 0.8809 -0.4732 -0.0012
vn -0.9509 -0.3096 -0.0000
vn 0.4556 -0.8902 -0.0000
vn 0.4546 -0.8907 0.0003
vn -0.1803 0.9836 0.0000
vn -0.4315 0.4331 0.7914
vn 0.8037 0.5950 0.0000
vn -0.6070 0.7947 -0.0000
vn -0.6076 0.7942 -0.0013
vn -0.6074 0.7944 0.0018
vn -0.6065 0.7951 0.0007
vn 0.3578 -0.9338 -0.0000
vn 0.3594 -0.9332 -0.0006
vn -0.6787 -0.2215 0.7002
vn -0.8980 0.3890 -0.2058
vn -0.8983 0.3886 -0.2051
vn 0.9195 -0.2701 0.2857
vn 0.2860 -0.8437 0.4542
vn 0.2794 -0.7340 0.6190
vn -0.0722 -0.0287 -0.9970
vn -0.0722 -0.0296 -0.9969
vn -0.0560 -0.0515 -0.9971
vn -0.0567 -0.0508 -0.9971
vn -0.5038 -0.1040 0.8576
vn 0.1941 0.2739 0.9420
vn 0.0138 0.9999 -0.0006
vn 0.0113 0.9999 -0.0003
vn 0.0131 0.9999 0.0000
vn 0.0664 0.0250 0.9975
vn 0.0666 0.0238 0.9975
vn 0.0662 0.0230 0.9975
vn -0.1976 0.9802 0.0074
vn -0.3233 -0.8705 0.3710
vn -0.7742 -0.2530 -0.5802
vn -0.9505 -0.3106 -0.0000
vn -0.7742 -0.2530 0.5802
vn -0.6301 0.7765 0.0001
vn -0.9622 -0.2724 -0.0000
vn 0.3326 0.1691 -0.9278
vn 0.3332 0.1677 -0.9278
vn -0.4315 0.4331 -0.7914
vn -0.4328 0.4326 -0.7909
vn 0.0811 0.0281 -0.9963
vn 0.0797 0.0285 -0.9964
vn 0.0808 0.0300 -0.9963
vn -0.0890 -0.0341 -0.9954
vn -0.0901 -0.0326 -0.9954
vn -0.0911 -0.0311 -0.9954
vn -0.4547 -0.1484 -0.8782
vn -0.4563 -0.1488 -0.8773
usemtl robo
s off
f 12/1/1 10/2/1 6/3/1 8/4/1
f 8/5/2 6/6/2 5/7/2 7/8/2
f 16/9/3 14/10/3 13/11/3 15/12/3
f 10/13/4 9/14/4 5/15/4 6/16/4
f 9/17/5 11/18/5 7/8/5 5/7/5
f 12/1/6 11/19/6 9/20/6 10/2/6
f 17/21/5 19/22/5 15/12/5 13/11/5
f 28/23/7 26/24/7 22/25/7 24/26/7
f 32/27/8 26/28/8 25/29/8 31/30/8
f 20/31/9 19/22/9 17/21/9 18/32/9
f 20/31/1 18/32/1 14/33/1 16/34/1
f 29/35/10 21/36/10 22/37/10 30/38/10
f 25/39/11 27/40/11 23/41/11 21/42/11
f 28/43/12 27/44/12 25/45/12 26/46/12
f 86/47/13 85/48/13 89/49/13 90/50/13
f 24/51/14 22/52/14 21/53/14 23/54/14
f 75/55/15 76/56/16 88/57/16 87/58/16
f 31/30/17 25/29/17 21/36/17 29/35/17
f 30/38/18 22/37/18 26/28/18 32/27/18
f 30/38/19 32/27/19 31/30/19 29/35/19
f 37/59/20 36/60/20 35/61/20 34/62/20 33/63/20 38/64/20
f 58/65/21 57/66/21 55/67/22 56/68/21
f 44/69/23 39/70/23 45/71/23 50/72/23
f 43/73/24 42/74/24 41/75/24 40/76/24 39/77/24 44/78/24
f 43/79/25 44/69/25 50/72/25 49/80/25
f 45/81/26 46/82/26 47/83/26 48/84/26 49/85/26 50/86/26
f 40/87/27 41/88/27 47/89/27 46/90/27
f 41/91/28 42/92/28 48/93/28 47/94/28
f 42/92/29 43/79/29 49/80/29 48/93/29
f 39/70/30 40/87/30 46/90/30 45/71/30
f 58/95/31 56/96/32 52/97/33 54/98/32
f 55/99/34 57/100/35 53/101/36 51/102/35
f 11/103/37 12/104/37 8/105/37 7/106/37
f 54/107/38 52/108/39 51/102/38 53/101/38
f 60/109/40 62/110/40 66/111/41 64/112/40
f 84/113/42 82/114/42 81/115/42 83/116/42
f 77/117/43 68/118/44 74/119/43 79/120/43
f 74/119/45 73/121/45 85/122/45 86/123/45
f 61/124/46 62/125/47 72/126/47 71/127/47
f 63/128/48 64/112/48 66/111/49 65/129/48
f 27/130/50 28/131/50 24/132/50 23/133/50
f 65/129/51 66/111/52 70/134/51 69/135/51
f 60/109/53 59/136/53 71/137/53 72/138/53
f 62/110/54 60/109/54 72/138/54
f 59/136/55 60/109/55 64/112/55 63/128/55
f 62/125/56 61/124/57 67/139/58 68/118/59
f 69/135/60 70/134/60 76/56/60 75/55/61
f 88/57/62 80/140/62 79/141/62 86/142/62
f 81/143/63 68/118/64 77/117/63 83/144/63
f 84/113/65 78/145/65 70/134/65 82/114/65
f 70/134/66 80/140/66 76/56/66
f 80/140/67 70/134/67 78/145/67
f 68/146/68 82/114/69 70/134/69
f 82/114/70 68/147/71 81/115/70
f 79/141/72 80/140/72 78/145/72 77/148/72
f 83/116/73 77/148/73 78/145/73 84/113/73
f 68/118/74 67/139/75 73/121/76 74/119/76
f 66/111/77 62/110/78 68/146/79 70/134/78
f 74/119/80 86/123/80 79/120/80
f 80/140/81 88/57/81 76/56/81
f 88/149/82 86/47/82 90/50/82 92/150/82
f 90/50/83 89/49/83 91/151/83 92/150/83
f 85/48/84 87/152/84 91/151/84 89/49/84
f 87/152/85 88/149/85 92/150/85 91/151/85
f 1/153/86 3/154/86 4/155/86 2/156/86
s 1
f 61/157/87 59/136/88 63/128/88 65/129/88
f 59/136/89 61/157/90 71/137/89
f 61/157/91 65/129/92 69/135/92 67/158/93
f 67/158/94 69/135/95 75/55/96 73/159/95
f 73/159/97 75/55/98 87/58/97 85/160/97
