# Blender v2.79 (sub 0) OBJ File: ''
# www.blender.org
mtllib asteroid.mtl
o Sphere001.005
v -0.004901 0.018792 0.260149
v 0.079799 0.164592 0.219649
v -0.002401 0.090692 0.216549
v -0.098801 0.001292 0.195049
v -0.143401 -0.080008 0.136449
v -0.122901 -0.121908 0.143849
v -0.069301 -0.098208 0.169549
v 0.031599 -0.017608 0.221249
v 0.106599 0.061392 0.238649
v 0.151199 0.142592 0.262149
v 0.152099 0.195092 0.252649
v 0.097899 0.252992 0.094149
v -0.046801 0.194392 0.026249
v -0.181501 0.059292 0.063249
v -0.172801 -0.072108 0.021349
v -0.140601 -0.149708 -0.017451
v -0.030501 -0.172308 -0.004451
v 0.109399 -0.103408 0.159449
v 0.231699 0.049892 0.208749
v 0.222999 0.181392 0.184949
v 0.203199 0.240692 0.170949
v 0.133399 0.228292 -0.044051
v -0.035001 0.129692 -0.111951
v -0.206601 0.017492 -0.074951
v -0.238901 -0.113908 -0.116851
v -0.206901 -0.214408 -0.155651
v -0.063801 -0.197008 -0.142551
v 0.043099 -0.115508 0.021249
v 0.165599 0.074192 0.070549
v 0.197899 0.205692 0.046749
v 0.214999 0.228592 0.032749
v 0.077299 0.085092 -0.142151
v -0.041401 0.000292 -0.145251
v -0.153701 -0.045608 -0.166751
v -0.234101 -0.126808 -0.225351
v -0.201201 -0.212408 -0.217951
v -0.109001 -0.177808 -0.192251
v -0.046701 -0.077008 -0.140551
v 0.015899 0.050092 -0.123151
v 0.096299 0.131292 -0.099651
v 0.113099 0.135592 -0.109151
v -0.099201 -0.075508 -0.187051
vt 0.000000 1.000000
vt 0.000000 0.800000
vt 0.100000 0.800000
vt 0.100000 1.000000
vt 0.200000 0.800000
vt 0.200000 1.000000
vt 0.300000 0.800000
vt 0.300000 1.000000
vt 0.400000 0.800000
vt 0.400000 1.000000
vt 0.500000 0.800000
vt 0.500000 1.000000
vt 0.600000 0.800000
vt 0.600000 1.000000
vt 0.700000 0.800000
vt 0.700000 1.000000
vt 0.800000 0.800000
vt 0.800000 1.000000
vt 0.900000 0.800000
vt 0.900000 1.000000
vt 1.000000 0.800000
vt 0.000000 0.600000
vt 0.100000 0.600000
vt 0.200000 0.600000
vt 0.300000 0.600000
vt 0.400000 0.600000
vt 0.500000 0.600000
vt 0.600000 0.600000
vt 0.700000 0.600000
vt 0.800000 0.600000
vt 0.900000 0.600000
vt 1.000000 0.600000
vt 0.000000 0.400000
vt 0.100000 0.400000
vt 0.200000 0.400000
vt 0.300000 0.400000
vt 0.400000 0.400000
vt 0.500000 0.400000
vt 0.600000 0.400000
vt 0.700000 0.400000
vt 0.800000 0.400000
vt 0.900000 0.400000
vt 1.000000 0.400000
vt 0.000000 0.200000
vt 0.100000 0.200000
vt 0.200000 0.200000
vt 0.300000 0.200000
vt 0.400000 0.200000
vt 0.500000 0.200000
vt 0.600000 0.200000
vt 0.700000 0.200000
vt 0.800000 0.200000
vt 0.900000 0.200000
vt 1.000000 0.200000
vt 0.000000 0.000000
vt 0.100000 0.000000
vt 0.200000 0.000000
vt 0.300000 0.000000
vt 0.400000 0.000000
vt 0.500000 0.000000
vt 0.600000 0.000000
vt 0.700000 0.000000
vt 0.800000 0.000000
vt 0.900000 0.000000
vn -0.2060 -0.1242 0.9706
vn -0.5355 0.6234 0.5698
vn -0.5420 0.5461 0.6388
vn -0.6877 0.0908 0.7203
vn -0.8873 -0.0863 0.4531
vn -0.4632 -0.6963 0.5483
vn -0.0113 -0.7346 0.6784
vn 0.1804 -0.5422 0.8207
vn 0.3227 -0.3591 0.8757
vn 0.4484 -0.1361 0.8834
vn 0.1720 0.5559 0.8132
vn -0.2271 0.9692 0.0952
vn -0.4932 0.8696 -0.0227
vn -0.8630 0.3724 0.3413
vn -0.8668 -0.3003 0.3981
vn -0.4553 -0.8072 0.3758
vn 0.2146 -0.9658 0.1453
vn 0.5433 -0.7744 0.3242
vn 0.8434 -0.2875 0.4539
vn 0.9060 0.1637 0.3903
vn 0.5095 0.7943 0.3307
vn 0.1923 0.7673 -0.6117
vn -0.1773 0.6058 -0.7756
vn -0.8164 0.5172 -0.2570
vn -0.9717 -0.1288 0.1981
vn -0.5039 -0.8540 0.1298
vn 0.5522 -0.7715 -0.3160
vn 0.7614 -0.5359 -0.3648
vn 0.8086 -0.3700 -0.4574
vn 0.8164 -0.5097 -0.2716
vn 0.8649 0.3833 -0.3241
vn 0.5750 -0.2971 -0.7623
vn -0.1953 0.5148 -0.8348
vn -0.1753 0.5960 -0.7836
vn -0.6346 0.0991 -0.7664
vn -0.2573 -0.7207 -0.6437
vn 0.4354 -0.4312 -0.7903
vn 0.7473 -0.1806 -0.6395
vn 0.7774 -0.5978 -0.1957
vn 0.6503 -0.7568 0.0665
vn -0.4052 -0.5220 0.7506
vn 0.3245 0.2225 -0.9193
usemtl 01___Default.005
s 1
f 1/1/1 2/2/2 3/3/3
f 1/4/1 3/3/3 4/5/4
f 1/6/1 4/5/4 5/7/5
f 1/8/1 5/7/5 6/9/6
f 1/10/1 6/9/6 7/11/7
f 1/12/1 7/11/7 8/13/8
f 1/14/1 8/13/8 9/15/9
f 1/16/1 9/15/9 10/17/10
f 1/18/1 10/17/10 11/19/11
f 1/20/1 11/19/11 2/21/2
f 2/2/2 12/22/12 13/23/13
f 2/2/2 13/23/13 3/3/3
f 3/3/3 13/23/13 14/24/14
f 3/3/3 14/24/14 4/5/4
f 4/5/4 14/24/14 15/25/15
f 4/5/4 15/25/15 5/7/5
f 5/7/5 15/25/15 16/26/16
f 5/7/5 16/26/16 6/9/6
f 6/9/6 16/26/16 17/27/17
f 6/9/6 17/27/17 7/11/7
f 7/11/7 17/27/17 18/28/18
f 7/11/7 18/28/18 8/13/8
f 8/13/8 18/28/18 19/29/19
f 8/13/8 19/29/19 9/15/9
f 9/15/9 19/29/19 20/30/20
f 9/15/9 20/30/20 10/17/10
f 10/17/10 20/30/20 21/31/21
f 10/17/10 21/31/21 11/19/11
f 11/19/11 21/31/21 12/32/12
f 11/19/11 12/32/12 2/21/2
f 12/22/12 22/33/22 23/34/23
f 12/22/12 23/34/23 13/23/13
f 13/23/13 23/34/23 24/35/24
f 13/23/13 24/35/24 14/24/14
f 14/24/14 24/35/24 25/36/25
f 14/24/14 25/36/25 15/25/15
f 15/25/15 25/36/25 26/37/26
f 15/25/15 26/37/26 16/26/16
f 16/26/16 26/37/26 27/38/27
f 16/26/16 27/38/27 17/27/17
f 17/27/17 27/38/27 28/39/28
f 17/27/17 28/39/28 18/28/18
f 18/28/18 28/39/28 29/40/29
f 18/28/18 29/40/29 19/29/19
f 19/29/19 29/40/29 30/41/30
f 19/29/19 30/41/30 20/30/20
f 20/30/20 30/41/30 31/42/31
f 20/30/20 31/42/31 21/31/21
f 21/31/21 31/42/31 22/43/22
f 21/31/21 22/43/22 12/32/12
f 22/33/22 32/44/32 33/45/33
f 22/33/22 33/45/33 23/34/23
f 23/34/23 33/45/33 34/46/34
f 23/34/23 34/46/34 24/35/24
f 24/35/24 34/46/34 35/47/35
f 24/35/24 35/47/35 25/36/25
f 25/36/25 35/47/35 36/48/36
f 25/36/25 36/48/36 26/37/26
f 26/37/26 36/48/36 37/49/37
f 26/37/26 37/49/37 27/38/27
f 27/38/27 37/49/37 38/50/38
f 27/38/27 38/50/38 28/39/28
f 28/39/28 38/50/38 39/51/39
f 28/39/28 39/51/39 29/40/29
f 29/40/29 39/51/39 40/52/40
f 29/40/29 40/52/40 30/41/30
f 30/41/30 40/52/40 41/53/41
f 30/41/30 41/53/41 31/42/31
f 31/42/31 41/53/41 32/54/32
f 31/42/31 32/54/32 22/43/22
f 42/55/42 33/45/33 32/44/32
f 42/56/42 34/46/34 33/45/33
f 42/57/42 35/47/35 34/46/34
f 42/58/42 36/48/36 35/47/35
f 42/59/42 37/49/37 36/48/36
f 42/60/42 38/50/38 37/49/37
f 42/61/42 39/51/39 38/50/38
f 42/62/42 40/52/40 39/51/39
f 42/63/42 41/53/41 40/52/40
f 42/64/42 32/54/32 41/53/41
