# Blender v2.79 (sub 0) OBJ File: ''
# www.blender.org
mtllib asteroid.mtl
o Sphere001.004
v -0.028164 -0.000162 0.268002
v -0.088564 0.121238 0.162602
v -0.141864 0.086138 0.134702
v -0.178664 0.024338 0.133402
v -0.183564 -0.056962 0.208602
v -0.130864 -0.126462 0.222002
v -0.042764 -0.141562 0.245902
v 0.023636 -0.143262 0.254902
v 0.066436 -0.096062 0.266802
v 0.071336 -0.014862 0.198402
v 0.012736 0.069338 0.165702
v -0.043864 0.246338 0.050202
v -0.171264 0.131738 0.040702
v -0.196964 0.042438 0.037302
v -0.245064 -0.088962 0.094102
v -0.183464 -0.212362 0.097502
v -0.047164 -0.178962 0.123502
v 0.066536 -0.174162 0.113202
v 0.159436 -0.072962 0.084802
v 0.207536 0.058538 0.058202
v 0.078736 0.169938 0.009202
v -0.008864 0.261738 -0.087998
v -0.117964 0.214038 -0.097498
v -0.127964 0.100838 -0.100898
v -0.189764 -0.030562 -0.044098
v -0.115164 -0.130062 -0.040698
v 0.003336 -0.163562 -0.014698
v 0.134836 -0.083962 -0.024998
v 0.214736 -0.042962 -0.053398
v 0.276636 0.088438 -0.079998
v 0.132036 0.260138 -0.128998
v 0.022836 0.194738 -0.199198
v -0.048864 0.150438 -0.227098
v -0.077264 0.073838 -0.228398
v -0.102164 -0.007462 -0.153198
v -0.077764 -0.062262 -0.139798
v 0.006936 -0.068162 -0.115898
v 0.076736 -0.038862 -0.106898
v 0.147836 0.007638 -0.094998
v 0.172736 0.088938 -0.163398
v 0.105636 0.173838 -0.196098
v 0.029436 0.057438 -0.179198
vt 0.000000 1.000000
vt 0.000000 0.800000
vt 0.100000 0.800000
vt 0.100000 1.000000
vt 0.200000 0.800000
vt 0.200000 1.000000
vt 0.300000 0.800000
vt 0.300000 1.000000
vt 0.400000 0.800000
vt 0.400000 1.000000
vt 0.500000 0.800000
vt 0.500000 1.000000
vt 0.600000 0.800000
vt 0.600000 1.000000
vt 0.700000 0.800000
vt 0.700000 1.000000
vt 0.800000 0.800000
vt 0.800000 1.000000
vt 0.900000 0.800000
vt 0.900000 1.000000
vt 1.000000 0.800000
vt 0.000000 0.600000
vt 0.100000 0.600000
vt 0.200000 0.600000
vt 0.300000 0.600000
vt 0.400000 0.600000
vt 0.500000 0.600000
vt 0.600000 0.600000
vt 0.700000 0.600000
vt 0.800000 0.600000
vt 0.900000 0.600000
vt 1.000000 0.600000
vt 0.000000 0.400000
vt 0.100000 0.400000
vt 0.200000 0.400000
vt 0.300000 0.400000
vt 0.400000 0.400000
vt 0.500000 0.400000
vt 0.600000 0.400000
vt 0.700000 0.400000
vt 0.800000 0.400000
vt 0.900000 0.400000
vt 1.000000 0.400000
vt 0.000000 0.200000
vt 0.100000 0.200000
vt 0.200000 0.200000
vt 0.300000 0.200000
vt 0.400000 0.200000
vt 0.500000 0.200000
vt 0.600000 0.200000
vt 0.700000 0.200000
vt 0.800000 0.200000
vt 0.900000 0.200000
vt 1.000000 0.200000
vt 0.000000 0.000000
vt 0.100000 0.000000
vt 0.200000 0.000000
vt 0.300000 0.000000
vt 0.400000 0.000000
vt 0.500000 0.000000
vt 0.600000 0.000000
vt 0.700000 0.000000
vt 0.800000 0.000000
vt 0.900000 0.000000
vn 0.0022 0.3917 0.9201
vn -0.2691 0.6195 0.7375
vn -0.7083 0.4388 0.5530
vn -0.7659 0.4643 0.4447
vn -0.6921 0.1176 0.7121
vn -0.3874 -0.5162 0.7639
vn -0.1888 -0.6529 0.7336
vn 0.1817 -0.6971 0.6936
vn 0.5436 -0.1785 0.8201
vn 0.4650 0.5833 0.6660
vn 0.4499 0.6256 0.6373
vn -0.0322 0.8948 0.4453
vn -0.8765 0.4616 0.1368
vn -0.9449 0.3241 -0.0469
vn -0.9914 -0.1288 0.0227
vn -0.4914 -0.8705 0.0268
vn 0.1290 -0.9788 0.1590
vn 0.3709 -0.9277 -0.0436
vn 0.8327 -0.4603 0.3077
vn 0.7475 0.2938 0.5957
vn 0.4263 0.7053 0.5665
vn -0.0678 0.9934 -0.0929
vn -0.7242 0.6251 -0.2911
vn -0.9112 0.1143 -0.3958
vn -0.8555 -0.1291 -0.5014
vn -0.3811 -0.6907 -0.6146
vn 0.2708 -0.8949 -0.3548
vn 0.3097 -0.7874 -0.5330
vn 0.6462 -0.6706 -0.3643
vn 0.9786 0.1260 -0.1628
vn 0.4299 0.8851 -0.1781
vn -0.0081 0.4884 -0.8726
vn -0.1904 0.3234 -0.9269
vn -0.3672 -0.2375 -0.8993
vn -0.5489 -0.2967 -0.7815
vn -0.2052 -0.5916 -0.7797
vn 0.2231 -0.6386 -0.7364
vn 0.3900 -0.5514 -0.7375
vn 0.1985 -0.6086 -0.7683
vn 0.4376 -0.2492 -0.8639
vn 0.3059 0.1879 -0.9333
vn 0.2460 -0.3888 -0.8878
usemtl 01___Default.004
s 1
f 1/1/1 2/2/2 3/3/3
f 1/4/1 3/3/3 4/5/4
f 1/6/1 4/5/4 5/7/5
f 1/8/1 5/7/5 6/9/6
f 1/10/1 6/9/6 7/11/7
f 1/12/1 7/11/7 8/13/8
f 1/14/1 8/13/8 9/15/9
f 1/16/1 9/15/9 10/17/10
f 1/18/1 10/17/10 11/19/11
f 1/20/1 11/19/11 2/21/2
f 2/2/2 12/22/12 13/23/13
f 2/2/2 13/23/13 3/3/3
f 3/3/3 13/23/13 14/24/14
f 3/3/3 14/24/14 4/5/4
f 4/5/4 14/24/14 15/25/15
f 4/5/4 15/25/15 5/7/5
f 5/7/5 15/25/15 16/26/16
f 5/7/5 16/26/16 6/9/6
f 6/9/6 16/26/16 17/27/17
f 6/9/6 17/27/17 7/11/7
f 7/11/7 17/27/17 18/28/18
f 7/11/7 18/28/18 8/13/8
f 8/13/8 18/28/18 19/29/19
f 8/13/8 19/29/19 9/15/9
f 9/15/9 19/29/19 20/30/20
f 9/15/9 20/30/20 10/17/10
f 10/17/10 20/30/20 21/31/21
f 10/17/10 21/31/21 11/19/11
f 11/19/11 21/31/21 12/32/12
f 11/19/11 12/32/12 2/21/2
f 12/22/12 22/33/22 23/34/23
f 12/22/12 23/34/23 13/23/13
f 13/23/13 23/34/23 24/35/24
f 13/23/13 24/35/24 14/24/14
f 14/24/14 24/35/24 25/36/25
f 14/24/14 25/36/25 15/25/15
f 15/25/15 25/36/25 26/37/26
f 15/25/15 26/37/26 16/26/16
f 16/26/16 26/37/26 27/38/27
f 16/26/16 27/38/27 17/27/17
f 17/27/17 27/38/27 28/39/28
f 17/27/17 28/39/28 18/28/18
f 18/28/18 28/39/28 29/40/29
f 18/28/18 29/40/29 19/29/19
f 19/29/19 29/40/29 30/41/30
f 19/29/19 30/41/30 20/30/20
f 20/30/20 30/41/30 31/42/31
f 20/30/20 31/42/31 21/31/21
f 21/31/21 31/42/31 22/43/22
f 21/31/21 22/43/22 12/32/12
f 22/33/22 32/44/32 33/45/33
f 22/33/22 33/45/33 23/34/23
f 23/34/23 33/45/33 34/46/34
f 23/34/23 34/46/34 24/35/24
f 24/35/24 34/46/34 35/47/35
f 24/35/24 35/47/35 25/36/25
f 25/36/25 35/47/35 36/48/36
f 25/36/25 36/48/36 26/37/26
f 26/37/26 36/48/36 37/49/37
f 26/37/26 37/49/37 27/38/27
f 27/38/27 37/49/37 38/50/38
f 27/38/27 38/50/38 28/39/28
f 28/39/28 38/50/38 39/51/39
f 28/39/28 39/51/39 29/40/29
f 29/40/29 39/51/39 40/52/40
f 29/40/29 40/52/40 30/41/30
f 30/41/30 40/52/40 41/53/41
f 30/41/30 41/53/41 31/42/31
f 31/42/31 41/53/41 32/54/32
f 31/42/31 32/54/32 22/43/22
f 42/55/42 33/45/33 32/44/32
f 42/56/42 34/46/34 33/45/33
f 42/57/42 35/47/35 34/46/34
f 42/58/42 36/48/36 35/47/35
f 42/59/42 37/49/37 36/48/36
f 42/60/42 38/50/38 37/49/37
f 42/61/42 39/51/39 38/50/38
f 42/62/42 40/52/40 39/51/39
f 42/63/42 41/53/41 40/52/40
f 42/64/42 32/54/32 41/53/41
