# 3ds Max Wavefront OBJ Exporter v0.97b - (c)2007 guruware
# File Created: 15.02.2018 22:14:14

#
# object Cylinder001
#

mtllib default.mtl

v  -0.0000 -0.0000 -0.1331
v  0.1000 0.1732 0.0310
v  0.2000 0.0000 0.0310
v  -0.1000 0.1732 0.0310
v  -0.2000 -0.0000 0.0310
v  -0.1000 -0.1732 0.0310
v  0.1000 -0.1732 0.0310
v  -0.0000 0.1155 0.0996
v  0.0500 0.0866 0.0996
v  -0.0500 0.0866 0.0996
v  -0.1000 0.0577 0.0996
v  -0.1000 -0.0000 0.0996
v  -0.0000 -0.0000 0.0996
v  0.0500 -0.0866 0.0996
v  0.0000 -0.1155 0.0996
v  0.1000 0.0577 0.0996
v  -0.1000 -0.0577 0.0996
v  -0.0500 -0.0866 0.0996
v  0.1000 -0.0577 0.0996
v  0.1000 -0.0000 0.0996
# 20 vertices

vn 0.5956 0.3439 -0.7260
vn -0.0000 0.6877 -0.7260
vn -0.5956 0.3439 -0.7260
vn -0.5956 -0.3439 -0.7260
vn 0.0000 -0.6877 -0.7260
vn 0.5956 -0.3439 -0.7260
vn 0.2827 0.4897 0.8248
vn 0.0000 0.0000 1.0000
vn 0.2827 -0.4897 0.8248
vn 0.6624 -0.3824 0.6442
vn 0.6624 0.3824 0.6442
vn -0.5654 0.0000 0.8248
vn -0.6624 -0.3824 0.6442
vn -0.2827 -0.4897 0.8248
vn 0.0000 -0.7649 0.6442
vn 0.5654 0.0000 0.8248
vn 0.0000 -0.0000 1.0000
vn -0.0000 0.7649 0.6442
vn -0.2827 0.4897 0.8248
vn -0.6624 0.3824 0.6442
# 20 vertex normals

vt 0.5333 0.0000 0.0000
vt 0.9167 1.0000 1.0000
vt 0.7500 1.0000 1.0000
vt 0.2500 0.0000 1.0000
vt 0.0833 1.0000 1.0000
vt -0.0833 1.0000 1.0000
vt 0.2500 1.0000 1.0000
vt 0.4167 1.0000 1.0000
vt 0.5833 1.0000 1.0000
vt 0.7361 1.0000 0.5000
vt 0.7708 1.0000 0.7500
vt 0.6458 1.0000 0.2500
vt 0.5139 1.0000 -0.1667
vt 0.4375 1.0000 -0.2500
vt 0.6250 1.0000 0.5000
vt 0.6042 1.0000 0.7500
vt 0.4306 1.0000 0.1667
vt 0.7639 1.0000 0.8333
vt 0.3194 1.0000 -0.5000
vt 0.3542 1.0000 -0.2500
vt 0.6528 1.0000 0.8333
vt 0.2500 1.0000 -1.0000
vt 0.0833 1.0000 -1.0000
vt 0.6875 1.0000 0.7500
vt 0.6667 1.0000 -0.0000
# 25 texture coords

o Cylinder001
g Cylinder001
usemtl DefaultMaterial
s off
f 1/1/1 2/2/1 3/3/1 
f 1/4/2 4/5/2 2/6/2 
f 1/4/3 5/7/3 4/5/3 
f 1/4/4 6/8/4 5/7/4 
f 1/4/5 7/9/5 6/8/5 
f 1/1/6 3/3/6 7/9/6 
f 2/2/7 8/10/7 9/11/7 
f 10/12/8 11/13/8 12/14/8 
f 12/14/8 13/15/8 10/12/8 
f 7/9/9 14/16/9 15/17/9 
f 16/18/7 2/2/7 9/11/7 
f 13/15/8 12/14/8 17/19/8 
f 17/19/8 18/20/8 13/15/8 
f 14/16/9 7/9/9 19/21/9 
f 7/9/10 3/3/10 19/21/10 
f 3/3/11 2/2/11 16/18/11 
f 5/22/12 12/14/12 11/13/12 
f 12/14/12 5/22/12 17/19/12 
f 5/22/13 6/23/13 17/19/13 
f 17/19/14 6/23/14 18/20/14 
f 6/23/15 7/9/15 15/17/15 
f 3/3/16 20/24/16 19/21/16 
f 13/15/8 14/16/8 19/21/8 
f 19/21/8 20/24/8 13/15/8 
f 14/16/8 13/15/8 18/20/8 
f 18/20/17 15/17/17 14/16/17 
f 15/17/14 18/20/14 6/23/14 
f 8/10/8 10/12/8 13/15/8 
f 13/15/8 9/11/8 8/10/8 
f 9/11/8 13/15/8 20/24/8 
f 20/24/8 16/18/8 9/11/8 
f 16/18/16 20/24/16 3/3/16 
f 2/2/18 4/25/18 8/10/18 
f 8/10/19 4/25/19 10/12/19 
f 10/12/19 4/25/19 11/13/19 
f 11/13/20 4/25/20 5/22/20 
# 36 faces

