# Blender v2.79 (sub 0) OBJ File: 'robo_posed.blend'
# www.blender.org
mtllib robo.mtl
o robo_Untitled.015
v -0.093346 0.428224 0.175029
v 0.155632 0.428224 0.175029
v -0.133945 0.366746 0.084996
v 0.196231 0.366746 0.084996
v -0.093346 0.477788 0.026700
v 0.155632 0.477788 0.026700
v -0.133945 0.365157 -0.081052
v 0.196231 0.365157 -0.081052
v -0.145238 0.228759 0.036572
v 0.205654 0.228759 0.036572
v -0.145238 0.239040 -0.101178
v 0.205654 0.239040 -0.101178
v -0.046153 0.321345 0.189384
v 0.108439 0.321345 0.189384
v -0.133945 0.115991 0.074934
v 0.196231 0.115991 0.074934
v -0.133945 0.116019 -0.107467
v 0.196231 0.116019 -0.107467
v 0.277877 0.228759 0.074662
v 0.301917 0.239040 -0.025211
v 0.221914 0.115991 0.074741
v 0.221914 0.116019 -0.094372
v 0.196231 0.314545 0.145840
v 0.196231 0.346485 0.075908
v 0.243946 0.314545 0.145840
v 0.243946 0.346485 0.075908
v -0.083373 0.023054 0.086233
v 0.127251 0.023054 0.086265
v -0.083373 0.023229 -0.069040
v 0.127251 0.023229 -0.069064
v -0.046797 0.049136 0.064614
v 0.090674 0.049136 0.064635
v -0.046797 0.049265 -0.059037
v 0.090674 0.049265 -0.059053
vt 0.857564 0.829993
vt 0.821738 0.829993
vt 0.828959 0.824340
vt 0.850298 0.824682
vt 0.263102 0.623034
vt 0.307088 0.640535
vt 0.292086 0.654864
vt 0.260049 0.639122
vt 0.305715 0.565203
vt 0.326487 0.573151
vt 0.311429 0.599526
vt 0.304488 0.582399
vt 0.358737 0.628441
vt 0.361249 0.618093
vt 0.377109 0.626261
vt 0.372039 0.636104
vt 0.071321 0.865225
vt 0.060231 0.858859
vt 0.070448 0.843184
vt 0.073629 0.845645
vt 0.029510 0.811609
vt 0.044736 0.804837
vt 0.070855 0.824982
vt 0.004132 0.844515
vt 0.045077 0.876092
vt 0.023303 0.881812
vt 0.004132 0.867027
vt 0.280476 0.579797
vt 0.273690 0.595667
vt 0.319213 0.621006
vt 0.267607 0.608668
vt 0.279169 0.563764
vt 0.278388 0.546751
vt 0.308434 0.543113
vt 0.016718 0.825300
vt 0.311050 0.642547
vt 0.329505 0.669159
vt 0.306224 0.683365
vt 0.055688 0.880186
vt 0.063046 0.881489
vt 0.335226 0.636306
vt 0.343273 0.603480
vt 0.377109 0.593952
vt 0.349197 0.649663
vt 0.856760 0.802117
vt 0.849320 0.806245
vt 0.829713 0.806327
vt 0.822258 0.801685
vt 0.260286 0.570953
vt 0.246352 0.599291
vt 0.235236 0.619602
vt 0.232613 0.638229
vn 0.0001 -0.6383 -0.7698
vn 0.0017 -0.3820 -0.9242
vn -0.0000 -0.3825 -0.9240
vn 0.9278 0.3688 0.0563
vn 0.9274 0.3697 0.0568
vn 0.0000 0.9096 0.4154
vn -0.3491 0.2549 0.9018
vn -0.3497 0.2544 0.9017
vn -0.0001 0.1209 0.9927
vn 0.0007 -0.9165 -0.4000
vn 0.0000 -0.9170 -0.3988
vn -0.0000 0.6913 -0.7226
vn -0.0012 0.6911 -0.7227
vn -0.0000 0.1576 -0.9875
vn 0.0003 0.1564 -0.9877
vn 0.0000 0.1331 0.9911
vn 0.7914 -0.2762 0.5454
vn 0.0000 0.9485 0.3169
vn 0.0000 -0.3311 0.9436
vn -0.0013 -0.3319 0.9433
vn 0.0018 -0.3316 0.9434
vn 0.0007 -0.3306 0.9438
vn 0.0000 0.0511 -0.9987
vn -0.0006 0.0528 -0.9986
vn 0.7002 -0.7139 -0.0004
vn -0.2058 -0.7334 0.6479
vn -0.2051 -0.7338 0.6476
vn 0.2857 0.7907 -0.5415
vn 0.4542 0.0107 -0.8908
vn 0.6190 0.0384 -0.7844
vn -0.9970 -0.0775 -0.0050
vn -0.9969 -0.0779 -0.0058
vn -0.9971 -0.0692 -0.0316
vn -0.9971 -0.0696 -0.0308
vn 0.8576 -0.5112 0.0570
vn 0.9420 0.2694 0.2003
vn -0.0006 0.3227 0.9465
vn -0.0003 0.3203 0.9473
vn 0.0000 0.3221 0.9467
vn 0.9975 0.0709 0.0032
vn 0.9975 0.0707 0.0020
vn 0.9975 0.0700 0.0014
vn 0.0074 0.1156 0.9933
vn 0.3710 -0.5770 -0.7276
vn -0.5802 -0.8145 -0.0009
vn 0.0000 -1.0000 -0.0010
vn 0.5802 -0.8145 -0.0009
vn 0.0001 -0.3588 0.9334
vn -0.9278 0.3686 0.0578
vn -0.9278 0.3688 0.0563
vn -0.7914 -0.2762 0.5454
vn -0.7909 -0.2776 0.5454
vn -0.9963 0.0858 0.0016
vn -0.9964 0.0846 0.0024
vn -0.9963 0.0861 0.0035
vn -0.9954 -0.0952 -0.0049
vn -0.9954 -0.0958 -0.0031
vn -0.9954 -0.0963 -0.0013
vn -0.8782 -0.4783 -0.0003
vn -0.8773 -0.4799 -0.0002
usemtl robo
s off
f 28/1/1 27/2/1 31/3/1 32/4/1
f 17/5/2 18/6/3 30/7/3 29/8/3
f 2/9/4 4/10/4 8/11/5 6/12/4
f 26/13/6 24/14/6 23/15/6 25/16/6
f 19/17/7 10/18/8 16/19/7 21/20/7
f 16/19/9 15/21/9 27/22/9 28/23/9
f 3/24/10 4/25/11 14/26/11 13/27/11
f 5/28/12 6/12/12 8/11/13 7/29/12
f 7/29/14 8/11/15 12/30/14 11/31/14
f 2/9/16 1/32/16 13/33/16 14/34/16
f 4/10/17 2/9/17 14/34/17
f 1/32/18 2/9/18 6/12/18 5/28/18
f 4/25/19 3/24/20 9/35/21 10/18/22
f 11/31/23 12/30/23 18/6/23 17/5/24
f 30/7/25 22/36/25 21/37/25 28/38/25
f 23/39/26 10/18/27 19/17/26 25/40/26
f 26/13/28 20/41/28 12/30/28 24/14/28
f 12/30/29 22/36/29 18/6/29
f 22/36/30 12/30/30 20/41/30
f 10/42/31 24/14/32 12/30/32
f 24/14/33 10/43/34 23/15/33
f 21/37/35 22/36/35 20/41/35 19/44/35
f 25/16/36 19/44/36 20/41/36 26/13/36
f 10/18/37 9/35/38 15/21/39 16/19/39
f 8/11/40 4/10/41 10/42/42 12/30/41
f 16/19/43 28/23/43 21/20/43
f 22/36/44 30/7/44 18/6/44
f 30/45/45 28/1/45 32/4/45 34/46/45
f 32/4/46 31/3/46 33/47/46 34/46/46
f 27/2/47 29/48/47 33/47/47 31/3/47
f 29/48/48 30/45/48 34/46/48 33/47/48
s 1
f 3/49/49 1/32/50 5/28/50 7/29/50
f 1/32/51 3/49/52 13/33/51
f 3/49/53 7/29/54 11/31/54 9/50/55
f 9/50/56 11/31/57 17/5/58 15/51/57
f 15/51/59 17/5/60 29/8/59 27/52/59
