# Blender v2.79 (sub 0) OBJ File: 'glove.blend'
# www.blender.org
mtllib robo.mtl
o robo_Untitled.015
v -0.093362 0.428094 0.175250
v 0.155615 0.428094 0.175250
v -0.133961 0.366616 0.085218
v 0.196214 0.366616 0.085218
v -0.093362 0.477657 0.026922
v 0.155615 0.477657 0.026922
v -0.133961 0.365027 -0.080830
v 0.196214 0.365027 -0.080831
v -0.145255 0.228628 0.036793
v 0.205637 0.228628 0.036793
v -0.145255 0.238910 -0.100956
v 0.205637 0.238910 -0.100956
v -0.046170 0.321214 0.189605
v 0.108423 0.321214 0.189605
v -0.133961 0.115861 0.075156
v 0.196214 0.115861 0.075156
v -0.133961 0.115888 -0.107245
v 0.196214 0.115888 -0.107245
v 0.277861 0.228628 0.074883
v 0.301900 0.238910 -0.024989
v 0.221897 0.115861 0.074963
v 0.221897 0.115888 -0.094150
v 0.196214 0.314415 0.146062
v 0.196214 0.346355 0.076129
v 0.243930 0.314415 0.146062
v 0.243930 0.346355 0.076129
v -0.083390 0.022924 0.086455
v 0.127234 0.022924 0.086487
v -0.083390 0.023099 -0.068818
v 0.127234 0.023099 -0.068842
v -0.046814 0.049006 0.064836
v 0.090658 0.049006 0.064857
v -0.046814 0.049135 -0.058816
v 0.090658 0.049135 -0.058831
vt 0.857422 0.328125
vt 0.844727 0.296875
vt 0.864258 0.270508
vt 0.885742 0.330078
vt 0.832031 0.337891
vt 0.821289 0.294922
vt 0.829102 0.274414
vt 0.257812 0.331055
vt 0.147461 0.333008
vt 0.147461 0.245117
vt 0.252930 0.242188
vt 0.938477 0.169922
vt 0.809570 0.156250
vt 0.811523 0.096680
vt 0.948242 0.111328
vt 0.889648 0.242188
vt 0.911133 0.333008
vt 0.849609 0.225586
vt 0.900391 0.207031
vt 0.839844 0.201172
vt 0.792969 0.295898
vt 0.791992 0.351562
vt 0.821289 0.049805
vt 0.950195 0.062500
vt 0.929688 0.243164
vt 0.941406 0.328125
vt 0.891602 0.257812
vt 0.950195 0.339844
vt 0.854492 0.331055
vt 0.939453 0.250977
vt 0.949219 0.143555
vt 0.911133 0.183594
vt 0.897461 0.158203
vt 0.957031 0.180664
vt 0.979492 0.111328
vt 0.959961 0.063477
vt 0.815430 0.257812
vt 0.840820 0.336914
vt 0.821289 0.169922
vt 0.890625 0.062500
vt 0.961914 0.161133
vt 0.979492 0.156250
vt 0.844727 0.013672
vt 0.926758 0.021484
vt 0.964844 0.253906
vt 0.969727 0.318359
vt 0.844727 0.412109
vt 0.937500 0.431641
vt 0.982422 0.458984
vt 0.789062 0.458984
vt 0.833008 0.430664
vt 0.943359 0.428711
vt 0.794922 0.318359
vt 0.833008 0.342773
vt 0.980469 0.317383
vt 0.938477 0.339844
vt 0.856445 0.373047
vt 0.913086 0.369141
vt 0.956055 0.371094
vt 0.989258 0.358398
vn 0.0000 0.6913 -0.7226
vn -0.0012 0.6915 -0.7224
vn -0.0012 0.6911 -0.7228
vn 0.0000 0.9485 0.3169
vn 0.8308 0.5565 -0.0053
vn 0.8305 0.5570 -0.0043
vn 0.9606 0.2635 0.0883
vn 0.9609 0.2625 0.0877
vn 0.0000 -1.0000 -0.0010
vn 0.0000 -0.3311 0.9436
vn -0.0013 -0.3319 0.9433
vn 0.0019 -0.3309 0.9436
vn 0.0018 -0.3317 0.9434
vn 0.0007 -0.3306 0.9438
vn -0.0000 0.1576 -0.9875
vn 0.0003 0.1564 -0.9877
vn 0.9976 0.0686 0.0005
vn 0.9977 0.0684 -0.0007
vn 0.9977 0.0682 -0.0016
vn 0.9973 0.0729 0.0050
vn 0.9973 0.0736 0.0055
vn 0.9973 0.0729 0.0065
vn 0.0006 -0.9165 -0.4001
vn 0.0000 -0.9170 -0.3988
vn 0.0011 -0.9166 -0.3998
vn 0.7914 -0.2762 0.5454
vn 0.0000 0.1331 0.9911
vn -0.0004 0.3228 0.9465
vn -0.0003 0.3203 0.9473
vn 0.0000 0.3221 0.9467
vn -0.0007 0.3226 0.9465
vn 0.0000 0.0511 -0.9987
vn -0.0006 0.0528 -0.9986
vn 0.8383 -0.5451 -0.0001
vn 0.8832 -0.4382 0.1675
vn 0.0000 0.9096 0.4154
vn -0.4417 0.3218 0.8375
vn -0.4424 0.3212 0.8373
vn 0.0075 -0.0030 1.0000
vn 0.4542 0.0107 -0.8908
vn 0.6190 0.0384 -0.7844
vn -0.9970 -0.0775 -0.0050
vn -0.9969 -0.0779 -0.0058
vn -0.9971 -0.0692 -0.0316
vn -0.9971 -0.0696 -0.0308
vn 0.9536 0.1720 0.2472
vn 0.9237 0.3485 0.1592
vn 0.4224 0.7316 -0.5352
vn 0.0000 0.8549 -0.5187
vn -0.3019 -0.7623 0.5725
vn -0.3012 -0.7628 0.5722
vn 0.0000 -0.6385 0.7696
vn 0.0000 0.1207 0.9927
vn -0.0001 0.1211 0.9926
vn 0.0017 -0.3818 -0.9242
vn 0.0000 -0.3824 -0.9240
vn -0.0001 -0.3827 -0.9239
vn 0.0017 -0.3827 -0.9239
vn 0.7000 -0.7142 -0.0001
vn 0.7005 -0.7136 -0.0008
vn 0.0074 0.1156 0.9933
vn 0.3710 -0.5770 -0.7276
vn 0.0001 -0.6383 -0.7698
vn 0.5801 -0.8146 -0.0009
vn 0.5803 -0.8144 -0.0009
vn 0.0001 -0.3588 0.9334
vn -0.5802 -0.8145 -0.0009
vn -0.5801 -0.8146 -0.0009
vn -0.9059 0.4012 0.1356
vn -0.9059 0.4017 0.1342
vn -0.9397 0.3419 -0.0033
vn -0.9393 0.3430 -0.0025
vn -0.9959 0.0907 -0.0015
vn -0.9960 0.0893 -0.0009
vn -0.9968 0.0795 0.0059
vn -0.9967 0.0810 0.0070
vn -0.9968 0.0803 0.0047
vn -0.7914 -0.2762 0.5454
vn -0.7909 -0.2776 0.5454
vn -0.9959 -0.0904 -0.0085
vn -0.9958 -0.0911 -0.0068
vn -0.9959 -0.0904 -0.0051
vn -0.9950 -0.1002 0.0017
vn -0.9950 -0.0997 -0.0000
vn -0.9950 -0.1003 -0.0018
vn -0.8780 -0.4786 -0.0001
vn -0.8772 -0.4802 0.0000
vn -0.8783 -0.4780 -0.0005
usemtl 03_-_Default_#4
s off
f 5/1/1 6/2/1 8/3/2
f 8/3/3 7/4/1 5/1/1
f 1/5/4 2/6/4 6/2/4
f 6/2/4 5/1/4 1/5/4
f 2/6/5 4/7/5 8/3/6
f 8/3/7 6/2/8 2/6/8
f 32/8/9 31/9/9 33/10/9
f 33/10/9 34/11/9 32/8/9
f 4/12/10 3/13/11 9/14/12
f 9/14/13 10/15/14 4/12/10
f 7/4/15 8/3/16 12/16/15
f 12/16/15 11/17/15 7/4/15
f 8/3/17 4/7/18 10/18/19
f 10/18/20 12/16/21 8/3/22
f 3/13/23 4/12/24 14/19/24
f 14/19/24 13/20/24 3/13/25
f 4/7/26 2/6/26 14/21/26
f 2/6/27 1/5/27 13/22/27
f 13/22/27 14/21/27 2/6/27
f 10/15/28 9/14/29 15/23/30
f 15/23/30 16/24/30 10/15/31
f 11/17/32 12/16/32 18/25/32
f 18/25/32 17/26/33 11/17/32
f 20/27/34 21/28/34 22/29/34
f 20/27/35 19/30/35 21/28/35
f 23/31/36 26/32/36 24/33/36
f 26/32/36 23/31/36 25/34/36
f 16/24/37 19/35/37 10/15/38
f 19/35/39 16/24/39 21/36/39
f 12/37/40 22/29/40 18/38/40
f 22/29/41 12/37/41 20/27/41
f 10/39/42 24/33/43 12/37/43
f 24/33/44 10/40/45 23/31/44
f 20/27/46 25/34/46 19/30/46
f 25/34/47 20/27/47 26/32/47
f 12/37/48 26/32/48 20/27/48
f 26/32/49 12/37/49 24/33/49
f 19/35/50 23/41/50 10/15/51
f 23/41/52 19/35/52 25/42/52
f 16/24/53 15/23/53 27/43/53
f 27/43/54 28/44/54 16/24/54
f 17/26/55 18/25/56 30/45/56
f 30/45/57 29/46/57 17/26/58
f 21/28/59 30/47/59 22/29/59
f 30/47/60 21/28/60 28/48/60
f 16/24/61 28/44/61 21/36/61
f 22/29/62 30/47/62 18/38/62
f 28/49/63 27/50/63 31/51/63
f 31/51/63 32/52/63 28/49/63
f 27/50/64 29/53/64 33/54/64
f 33/54/65 31/51/65 27/50/65
f 29/53/66 30/55/66 34/56/66
f 34/56/66 33/54/66 29/53/66
f 30/55/67 28/49/67 32/52/67
f 32/52/68 34/56/68 30/55/68
s 1
f 3/57/69 1/5/70 5/1/70
f 5/1/71 7/4/71 3/57/72
f 3/57/73 7/4/74 11/17/74
f 11/17/75 9/58/76 3/57/77
f 1/5/78 3/57/79 13/22/78
f 9/58/80 11/17/81 17/26/82
f 17/26/83 15/59/84 9/58/85
f 15/59/86 17/26/87 29/46/86
f 29/46/88 27/60/88 15/59/88
