# Blender v2.79 (sub 0) OBJ File: ''
# www.blender.org
mtllib GoalPostobj.mtl
o Cube_Cube.001
v 2.916358 1.039961 0.127537
v 2.916358 6.248600 0.127537
v 2.845647 1.039961 0.098248
v 2.845647 6.248600 0.098248
v 2.816358 1.039961 0.027537
v 2.816358 6.248600 0.027537
v 1.129645 1.039961 0.027537
v 1.129645 6.248600 0.027537
v 1.100355 1.039961 0.098248
v 1.100355 6.248600 0.098248
v 1.029644 1.039961 0.127537
v 1.029644 6.248600 0.127537
v 1.029644 1.039961 1.793730
v 1.029644 6.248600 1.793730
v 1.100355 1.039961 1.823019
v 1.100355 6.248600 1.823019
v 1.129645 1.039961 1.893729
v 1.129645 6.248600 1.893729
v 2.900928 1.039961 1.793730
v 2.900928 6.248600 1.793730
v 2.800928 1.039961 1.893729
v 2.800928 6.248600 1.893729
v 2.830217 1.039961 1.823019
v 2.830217 6.248600 1.823019
v 0.961630 0.208956 1.961684
v 0.961630 6.336966 1.961684
v 0.961630 0.208956 -0.038316
v 0.961630 6.336966 -0.038316
v 2.961630 0.208956 1.961684
v 2.961630 6.336966 1.961684
v 2.961630 0.208956 -0.038316
v 2.961630 6.336966 -0.038316
v 1.164515 6.895824 1.758799
v 1.164515 6.895824 0.164569
v 2.758745 6.895824 0.164569
v 2.758745 6.895824 1.758799
v 0.651595 -0.681575 -0.348351
v 0.651595 -0.681575 2.271719
v 3.271666 -0.681575 -0.348351
v 3.271666 -0.681575 2.271719
v 2.961630 1.039961 1.961684
v 2.829076 1.039961 1.961684
v 2.961630 1.039961 1.818873
v 2.961630 6.248600 1.818873
v 2.829076 6.248600 1.961684
v 2.961630 6.248600 1.961684
v 1.101497 6.248600 1.961684
v 0.961630 1.039961 1.961684
v 1.101497 1.039961 1.961684
v 0.961630 1.039961 1.821902
v 0.961630 6.248598 1.961684
v 0.961630 6.248600 1.821902
v 0.961630 1.039961 0.099365
v 1.102367 1.039961 -0.038316
v 0.961630 1.039961 -0.038316
v 0.961630 6.248600 0.099365
v 1.102367 6.248600 -0.038316
v 0.961630 6.248600 -0.038316
v 2.961630 1.039961 0.108785
v 2.843635 1.039961 -0.038316
v 2.961630 1.039961 -0.038316
v 2.961630 6.248600 0.108785
v 2.843635 6.248600 -0.038316
v 2.961630 6.248600 -0.038316
vt 0.889579 0.028322
vt 0.899920 0.030563
vt 0.900705 0.232994
vt 0.890295 0.234993
vt 0.910062 0.027053
vt 0.910776 0.236711
vt 0.920799 0.017742
vt 0.920354 0.245601
vt 0.851211 0.032180
vt 0.861426 0.033911
vt 0.862534 0.233969
vt 0.852256 0.235437
vt 0.871610 0.030208
vt 0.872676 0.237901
vt 0.882654 0.020535
vt 0.882585 0.247205
vt 0.810751 0.030250
vt 0.820901 0.034204
vt 0.822043 0.234074
vt 0.811854 0.237796
vt 0.831170 0.032781
vt 0.832249 0.235762
vt 0.841617 0.020339
vt 0.841617 0.247780
vt 0.821052 0.268029
vt 0.800815 0.247477
vt 0.800840 0.020931
vt 0.820921 0.000246
vt 0.881588 0.466643
vt 0.890993 0.455391
vt 0.890991 0.681493
vt 0.882549 0.670621
vt 0.861162 0.464351
vt 0.871285 0.468229
vt 0.872310 0.668777
vt 0.862137 0.672431
vt 0.851267 0.455093
vt 0.869801 0.435423
vt 0.800322 0.424051
vt 0.742851 0.424051
vt 0.742851 0.394431
vt 0.548344 0.396128
vt 0.548464 0.414343
vt 0.544706 0.414368
vt 0.542730 0.183145
vt 0.546082 0.183031
vt 0.546624 0.199036
vt 0.741131 0.197339
vt 0.742851 0.000246
vt 0.800322 0.000246
vt 0.000246 0.692880
vt 0.000246 0.634942
vt 0.030312 0.634942
vt 0.028620 0.441061
vt 0.010130 0.441179
vt 0.010105 0.437390
vt 0.240804 0.435423
vt 0.240939 0.438777
vt 0.227213 0.439328
vt 0.228905 0.633208
vt 0.427499 0.634942
vt 0.427499 0.692880
vt 0.850599 0.435423
vt 0.850599 0.492731
vt 0.819516 0.492731
vt 0.821214 0.687332
vt 0.840346 0.687206
vt 0.840371 0.690956
vt 0.608951 0.692933
vt 0.608842 0.689578
vt 0.625452 0.689041
vt 0.623754 0.494440
vt 0.427992 0.492731
vt 0.427992 0.435423
vt 0.271327 0.711991
vt 0.268802 0.748365
vt 0.265977 0.765960
vt 0.251043 0.994009
vt 0.271328 0.995340
vt 0.271038 0.999753
vt 0.000246 0.981977
vt 0.000525 0.977603
vt 0.003506 0.959038
vt 0.019330 0.731049
vt 0.000572 0.729747
vt 0.003097 0.693373
vt 0.449891 0.000247
vt 0.542237 0.434930
vt 0.414536 0.353785
vt 0.378669 0.099601
vt 0.706563 0.981409
vt 0.437403 0.981409
vt 0.464708 0.944692
vt 0.679259 0.944693
vt 0.464708 0.730141
vt 0.679259 0.730142
vt 0.715975 0.702837
vt 0.715975 0.971997
vt 0.427992 0.971997
vt 0.427992 0.702837
vt 0.437404 0.693426
vt 0.706563 0.693426
vt 0.127947 0.081391
vt 0.163814 0.335575
vt 0.092593 0.434929
vt 0.000246 0.000246
vt 0.851092 0.682078
vt 0.869849 0.701702
vt 0.842110 0.020491
vt 0.842110 0.247537
vt 0.862849 0.000246
vt 0.862958 0.267600
vt 0.883147 0.019994
vt 0.904959 0.000246
vt 0.883147 0.243605
vt 0.904813 0.262980
vn 0.3827 0.0000 -0.9239
vn 0.9239 0.0000 -0.3827
vn 0.9239 0.0000 0.3827
vn -0.9239 0.0000 -0.3827
vn -0.3827 0.0000 -0.9239
vn -0.3827 0.0000 0.9239
vn -0.9239 0.0000 0.3827
vn 0.0000 -1.0000 -0.0000
vn 0.0000 1.0000 -0.0000
vn 0.3827 0.0000 0.9239
vn -1.0000 0.0000 0.0000
vn -0.0000 0.0000 -1.0000
vn 1.0000 0.0000 0.0000
vn 0.0000 0.0000 1.0000
vn 0.9444 0.3288 0.0000
vn 0.0000 0.3412 -0.9400
vn 0.9400 0.3412 0.0000
vn -0.9400 0.3412 0.0000
vn 0.0000 0.3412 0.9400
vn 0.0000 0.3288 0.9444
vn 0.0000 0.3288 -0.9444
vn -0.9444 0.3288 0.0000
usemtl None
s off
f 1/1/1 3/2/1 4/3/1 2/4/1
f 3/2/2 5/5/2 6/6/2 4/3/2
f 5/5/3 60/7/3 63/8/3 6/6/3
f 7/9/4 9/10/4 10/11/4 8/12/4
f 9/10/5 11/13/5 12/14/5 10/11/5
f 11/13/1 53/15/1 56/16/1 12/14/1
f 13/17/6 15/18/6 16/19/6 14/20/6
f 15/18/7 17/21/7 18/22/7 16/19/7
f 17/21/4 49/23/4 47/24/4 18/22/4
f 16/19/8 18/22/8 47/24/8 51/25/8 52/26/8 14/20/8
f 13/17/9 50/27/9 48/28/9 49/23/9 17/21/9 15/18/9
f 19/29/6 43/30/6 44/31/6 20/32/6
f 21/33/3 23/34/3 24/35/3 22/36/3
f 23/34/10 19/29/10 20/32/10 24/35/10
f 19/29/9 23/34/9 21/33/9 42/37/9 41/38/9 43/30/9
f 25/39/11 48/40/11 50/41/11 52/42/11 51/43/11 26/44/11 28/45/11 58/46/11 56/47/11 53/48/11 55/49/11 27/50/11
f 27/51/12 55/52/12 54/53/12 57/54/12 58/55/12 28/56/12 32/57/12 64/58/12 63/59/12 60/60/12 61/61/12 31/62/12
f 31/63/13 61/64/13 59/65/13 62/66/13 64/67/13 32/68/13 30/69/13 46/70/13 44/71/13 43/72/13 41/73/13 29/74/13
f 29/75/14 41/76/14 42/77/14 45/78/14 46/79/14 30/80/14 26/81/14 51/82/14 47/83/14 49/84/14 48/85/14 25/86/14
f 31/87/15 29/88/15 40/89/15 39/90/15
f 32/91/16 28/92/16 34/93/16 35/94/16
f 35/94/9 34/93/9 33/95/9 36/96/9
f 30/97/17 32/98/17 35/94/17 36/96/17
f 28/99/18 26/100/18 33/95/18 34/93/18
f 26/101/19 30/102/19 36/96/19 33/95/19
f 37/103/8 39/90/8 40/89/8 38/104/8
f 29/88/20 25/105/20 38/104/20 40/89/20
f 27/106/21 31/87/21 39/90/21 37/103/21
f 25/105/22 27/106/22 37/103/22 38/104/22
f 45/107/8 22/36/8 24/35/8 20/32/8 44/31/8 46/108/8
f 42/37/2 21/33/2 22/36/2 45/107/2
f 50/27/10 13/17/10 14/20/10 52/26/10
f 54/109/7 7/9/7 8/12/7 57/110/7
f 53/15/9 11/13/9 9/10/9 7/9/9 54/109/9 55/111/9
f 57/110/8 8/12/8 10/11/8 12/14/8 56/16/8 58/112/8
f 60/7/9 5/5/9 3/2/9 1/1/9 59/113/9 61/114/9
f 62/115/8 2/4/8 4/3/8 6/6/8 63/8/8 64/116/8
f 59/113/5 1/1/5 2/4/5 62/115/5
