# Blender v2.79 (sub 0) OBJ File: 'JoeHead.blend'
# www.blender.org
mtllib head2.mtl
o Cube.001
v -0.544313 0.252614 0.443545
v -0.544313 -0.024999 0.555921
v -0.544313 0.252614 0.555921
v -0.544313 -0.024999 0.443545
v 0.544313 0.252614 0.443545
v 0.544313 -0.024999 0.555921
v 0.544313 0.252614 0.555921
v -0.000000 -0.024999 0.555921
v -0.000000 -0.024999 0.443545
v 0.544313 -0.024999 0.443545
v -0.000000 0.485050 0.596562
v -0.000000 0.593912 0.596562
v -0.000000 0.485050 0.650993
v -0.000000 0.593912 0.650993
v -0.481185 0.018468 -0.284011
v -0.481185 0.798868 -0.284011
v 0.481185 0.018468 -0.284011
v 0.481185 0.798868 -0.284011
v -0.481185 0.018468 0.597777
v -0.481185 0.798868 0.597777
v 0.481185 0.018468 0.597777
v 0.481185 0.798868 0.597777
v -0.433255 1.001996 0.692278
v -0.544313 -0.048862 -0.455430
v -0.544314 0.813189 0.815635
v -0.544313 0.813189 -0.298577
v -0.433255 0.952125 -0.264069
v -0.544313 0.130069 0.091498
v -0.544313 0.813189 0.091498
v -0.433255 1.042848 0.091498
v -0.544313 0.252614 0.443545
v -0.544314 0.813189 0.363654
v -0.433255 1.042848 0.363654
v -0.544313 0.432736 0.091498
v -0.544314 0.432736 0.363654
v -0.515122 0.288270 0.635811
v -0.515122 0.020732 -0.455430
v -0.515123 0.803227 0.815635
v -0.515122 0.803227 -0.298577
v -0.515122 0.199663 0.091498
v -0.515122 0.803227 0.091498
v -0.515122 0.288270 0.363655
v -0.515122 0.803227 0.363654
v -0.515122 0.453735 0.091498
v -0.515122 0.453735 0.363654
v -0.544313 -0.024999 0.555921
v -0.544313 0.252614 0.555921
v -0.544313 -0.024999 0.443545
v 0.433255 1.001996 0.692278
v 0.544313 -0.048862 -0.455430
v -0.000000 1.042848 0.696156
v 0.000000 1.042848 -0.298577
v 0.544314 0.813189 0.815635
v 0.544313 0.813189 -0.298577
v 0.433255 0.952125 -0.264069
v -0.000000 1.123867 0.091498
v 0.000000 -0.048862 -0.623537
v -0.000000 0.813189 0.875980
v 0.000000 0.813189 -0.466683
v 0.544313 0.130069 0.091498
v 0.544313 0.813189 0.091498
v 0.433255 1.042848 0.091498
v 0.544313 0.252614 0.443545
v -0.000000 1.123867 0.363655
v 0.544314 0.813189 0.363654
v 0.433255 1.042848 0.363654
v 0.544313 0.432736 0.091498
v 0.544314 0.432736 0.363654
v 0.515122 0.288270 0.635811
v 0.515122 0.020732 -0.455430
v 0.515122 0.803227 0.815635
v 0.515122 0.803227 -0.298577
v 0.000000 0.020732 -0.588976
v 0.000000 0.803227 -0.432123
v 0.515122 0.199663 0.091498
v 0.515122 0.803227 0.091498
v 0.515122 0.288270 0.363655
v 0.515122 0.803227 0.363654
v 0.515122 0.453735 0.091498
v 0.515122 0.453735 0.363654
v 0.544313 -0.024999 0.555921
v 0.544313 0.252614 0.555921
v -0.000000 -0.024999 0.555921
v -0.000000 -0.024999 0.443545
v 0.544313 -0.024999 0.443545
v -0.217725 0.485050 0.596562
v -0.217725 0.593912 0.596562
v -0.217725 0.485050 0.650993
v -0.217725 0.593912 0.650993
v 0.217725 0.485050 0.650993
v 0.217725 0.593912 0.596562
v 0.217725 0.485050 0.596562
v 0.217725 0.593912 0.650993
v -0.282914 0.593912 0.596562
v -0.282914 0.485050 0.596562
v -0.000000 0.485050 0.596562
v -0.000000 0.593912 0.596562
v -0.000000 0.485050 0.650993
v -0.000000 0.593912 0.650993
v 0.282914 0.593912 0.596562
v 0.282914 0.485050 0.596562
v -0.196853 0.588694 0.634078
v -0.196853 0.490268 0.634078
v 0.196853 0.588694 0.634078
v 0.196853 0.490268 0.634078
vt 0.081414 0.973278
vt 0.081414 0.949287
vt 0.187888 0.949287
vt 0.294361 0.949287
vt 0.294361 0.973277
vt 0.187888 0.973278
vt 0.014447 0.973278
vt 0.014447 0.949287
vt 0.361328 0.973277
vt 0.361328 0.949287
vt 0.767449 0.014447
vt 0.767449 0.202698
vt 0.579199 0.202698
vt 0.579199 0.014447
vt 0.390948 0.202698
vt 0.390948 0.014447
vt 0.202698 0.202697
vt 0.202698 0.014447
vt 0.014447 0.202697
vt 0.014447 0.014447
vt 0.014447 0.732142
vt 0.202697 0.732142
vt 0.202697 0.920393
vt 0.014447 0.920393
vt 0.669623 0.961562
vt 0.776097 0.961562
vt 0.882571 0.961562
vt 0.882571 0.985553
vt 0.776097 0.985553
vt 0.669623 0.985553
vt 0.586342 0.805862
vt 0.498879 0.793459
vt 0.509589 0.707566
vt 0.591047 0.719225
vt 0.499084 0.670225
vt 0.587651 0.659694
vt 0.405718 0.483194
vt 0.405718 0.703248
vt 0.322442 0.703248
vt 0.322442 0.483194
vt 0.434612 0.768905
vt 0.750415 0.674860
vt 0.792278 0.778296
vt 0.724173 0.799379
vt 0.702326 0.716008
vt 0.210083 0.703248
vt 0.210083 0.483194
vt 0.650009 0.659694
vt 0.646526 0.719864
vt 0.647580 0.807282
vt 0.843006 0.014447
vt 0.898452 0.149671
vt 0.801960 0.149671
vt 0.819016 0.014447
vt 0.879395 0.574968
vt 0.821293 0.574968
vt 0.821293 0.483194
vt 0.879395 0.483194
vt 0.020723 0.249928
vt 0.104302 0.249097
vt 0.104151 0.451433
vt 0.020410 0.451646
vt 0.209825 0.249546
vt 0.209320 0.451445
vt 0.612980 0.894278
vt 0.612980 0.836176
vt 0.737200 0.836176
vt 0.737200 0.932668
vt 0.830518 0.292374
vt 0.750281 0.289727
vt 0.752512 0.234531
vt 0.832342 0.237076
vt 0.602656 0.853232
vt 0.602656 0.877223
vt 0.861210 0.022577
vt 0.903157 0.145641
vt 0.101460 0.231591
vt 0.017975 0.232686
vt 0.209902 0.231635
vt 0.014447 0.454300
vt 0.740557 0.289088
vt 0.746497 0.231591
vt 0.834650 0.231591
vt 0.602656 0.961562
vt 0.602656 0.985553
vt 0.796343 0.147057
vt 0.800970 0.022923
vt 0.828288 0.402125
vt 0.832964 0.393565
vt 0.587159 0.483194
vt 0.589853 0.569917
vt 0.508146 0.579684
vt 0.499431 0.493565
vt 0.496778 0.616771
vt 0.585076 0.629353
vt 0.014447 0.483194
vt 0.097723 0.483194
vt 0.097723 0.703248
vt 0.014447 0.703248
vt 0.434612 0.516622
vt 0.748148 0.617966
vt 0.701027 0.575713
vt 0.724802 0.492872
vt 0.792400 0.515530
vt 0.647418 0.630800
vt 0.645332 0.570565
vt 0.648413 0.483194
vt 0.306494 0.725177
vt 0.330484 0.725202
vt 0.347399 0.860443
vt 0.250907 0.860343
vt 0.857867 0.894278
vt 0.766093 0.894278
vt 0.766093 0.836176
vt 0.857867 0.836176
vt 0.398320 0.251489
vt 0.397662 0.451943
vt 0.314322 0.451637
vt 0.315177 0.249951
vt 0.879276 0.670018
vt 0.917664 0.794238
vt 0.821172 0.794237
vt 0.821174 0.670017
vt 0.499254 0.929848
vt 0.440629 0.927638
vt 0.444208 0.842839
vt 0.502462 0.844783
vt 0.838229 0.659694
vt 0.862220 0.659694
vt 0.246206 0.856308
vt 0.288281 0.733288
vt 0.318179 0.232539
vt 0.401168 0.234532
vt 0.403565 0.454299
vt 0.502543 0.836793
vt 0.434612 0.929848
vt 0.441723 0.836176
vt 0.949537 0.961562
vt 0.949537 0.985553
vt 0.348521 0.733697
vt 0.353019 0.857835
vt 0.573762 0.901273
vt 0.567886 0.904016
vt 0.875165 0.244343
vt 0.863544 0.244343
vt 0.863544 0.231591
vt 0.753309 0.442639
vt 0.753309 0.431019
vt 0.838488 0.431019
vt 0.838488 0.442639
vt 0.875165 0.329522
vt 0.863544 0.329522
vt 0.880796 0.371168
vt 0.880796 0.397428
vt 0.863544 0.397428
vt 0.863544 0.371168
vt 0.740557 0.431019
vt 0.863544 0.342274
vt 0.886761 0.836176
vt 0.904014 0.836176
vt 0.904014 0.862436
vt 0.886761 0.862436
vt 0.851240 0.431019
vt 0.909509 0.286745
vt 0.909509 0.313006
vt 0.904059 0.311747
vt 0.904059 0.288004
vt 0.460871 0.435859
vt 0.432337 0.335102
vt 0.460824 0.234331
vt 0.544100 0.234312
vt 0.602202 0.234298
vt 0.698694 0.234250
vt 0.711627 0.335036
vt 0.698741 0.435828
vt 0.602249 0.435826
vt 0.544147 0.435839
vt 0.796343 0.178565
vt 0.873357 0.178565
vt 0.873357 0.202307
vt 0.796343 0.202307
vt 0.904059 0.257852
vt 0.904059 0.231591
vt 0.909509 0.232850
vt 0.909509 0.256593
vt 0.231591 0.905462
vt 0.316771 0.905462
vt 0.312688 0.909287
vt 0.235674 0.909286
vt 0.906473 0.607686
vt 0.821293 0.607686
vt 0.825376 0.603862
vt 0.902390 0.603862
vt 0.700647 0.441723
vt 0.700596 0.228355
vn 0.0000 1.0000 0.0000
vn 1.0000 0.0000 0.0000
vn -1.0000 0.0000 0.0000
vn 0.0000 0.0000 -1.0000
vn 0.0000 0.0000 1.0000
vn 0.0000 -1.0000 0.0000
vn -0.1981 0.9552 -0.2200
vn -0.8522 0.5194 -0.0632
vn -0.2194 0.5199 -0.8256
vn -0.0774 0.5983 0.7975
vn -0.2907 0.1713 -0.9413
vn -0.8800 0.4744 0.0248
vn -0.1838 0.9830 0.0000
vn -0.1378 0.9740 0.1796
vn -0.9003 0.4353 -0.0000
vn 0.2464 -0.1905 0.9503
vn 0.7738 -0.6335 0.0000
vn -0.7400 -0.2544 0.6226
vn 0.9149 -0.3837 0.1255
vn 0.2626 -0.2840 0.9222
vn 0.3950 -0.5492 -0.7365
vn -0.7997 -0.0445 -0.5987
vn 0.1981 0.9552 -0.2200
vn 0.8522 0.5194 -0.0632
vn 0.2194 0.5199 -0.8256
vn 0.0774 0.5983 0.7975
vn 0.2907 0.1713 -0.9413
vn 0.8800 0.4744 0.0248
vn 0.1838 0.9830 -0.0000
vn 0.1378 0.9740 0.1796
vn 0.9003 0.4353 -0.0000
vn -0.2464 -0.1905 0.9503
vn -0.7738 -0.6335 0.0000
vn 0.7400 -0.2544 0.6226
vn -0.9149 -0.3837 0.1255
vn -0.2626 -0.2840 0.9222
vn -0.3950 -0.5492 -0.7365
vn 0.7997 -0.0445 -0.5987
vn -0.6409 0.0000 0.7676
vn 0.6409 0.0000 0.7676
vn -0.6296 0.0000 0.7769
vn 0.0000 -1.0000 0.0041
vn 0.6296 0.0000 0.7769
vn 0.0000 0.9556 0.2948
vn 0.0000 -0.9556 0.2948
vn -0.1049 -0.3073 0.9458
vn 0.1049 -0.3073 0.9458
usemtl Material.001
s off
f 4/1/1 2/2/1 8/3/1 6/4/1 10/5/1 9/6/1
f 1/7/2 3/8/2 2/2/2 4/1/2
f 5/9/3 10/5/3 6/4/3 7/10/3
usemtl Material.000
f 15/11/4 16/12/4 18/13/4 17/14/4
f 17/14/2 18/13/2 22/15/2 21/16/2
f 21/16/5 22/15/5 20/17/5 19/18/5
f 19/18/3 20/17/3 16/19/3 15/20/3
f 17/21/6 21/22/6 19/23/6 15/24/6
f 48/25/6 84/26/6 85/27/6 81/28/6 83/29/6 46/30/6
f 56/31/7 52/32/7 27/33/7 30/34/7
f 26/35/8 29/36/8 30/34/8 27/33/8
f 28/37/3 29/38/3 26/39/3 24/40/3
f 59/41/9 26/35/9 27/33/9 52/32/9
f 25/42/10 58/43/10 51/44/10 23/45/10
f 24/40/11 26/39/11 59/46/11 57/47/11
f 32/48/12 25/42/12 23/45/12 33/49/12
f 64/50/13 56/31/13 30/34/13 33/49/13
f 51/44/14 64/50/14 33/49/14 23/45/14
f 47/51/3 25/52/3 32/53/3 31/54/3
f 29/36/15 32/48/15 33/49/15 30/34/15
f 32/55/3 29/56/3 34/57/3 35/58/3
f 40/59/2 37/60/2 39/61/2 41/62/2
f 37/60/16 73/63/16 74/64/16 39/61/16
f 36/65/2 42/66/2 43/67/2 38/68/2
f 43/69/2 45/70/2 44/71/2 41/72/2
f 31/73/17 42/66/17 36/65/17 47/74/17
f 25/52/18 47/51/18 36/75/18 38/76/18
f 24/77/19 37/60/19 40/59/19 28/78/19
f 57/79/20 73/63/20 37/60/20 24/77/20
f 28/78/5 40/59/5 41/62/5 29/80/5
f 35/81/21 34/82/21 29/83/21 41/72/21 44/71/21 45/70/21
f 31/84/3 48/25/3 46/30/3 47/85/3
f 31/54/22 32/53/22 43/86/22 42/87/22
f 32/88/5 35/81/5 45/70/5 43/89/5
f 56/90/23 62/91/23 55/92/23 52/93/23
f 54/94/24 55/92/24 62/91/24 61/95/24
f 60/96/2 50/97/2 54/98/2 61/99/2
f 59/100/25 52/93/25 55/92/25 54/94/25
f 53/101/26 49/102/26 51/103/26 58/104/26
f 50/97/27 57/47/27 59/46/27 54/98/27
f 65/105/28 66/106/28 49/102/28 53/101/28
f 64/107/29 66/106/29 62/91/29 56/90/29
f 51/103/30 49/102/30 66/106/30 64/107/30
f 82/108/2 63/109/2 65/110/2 53/111/2
f 61/95/31 62/91/31 66/106/31 65/105/31
f 65/112/2 68/113/2 67/114/2 61/115/2
f 75/116/3 76/117/3 72/118/3 70/119/3
f 70/119/32 72/118/32 74/64/32 73/63/32
f 69/120/3 71/121/3 78/122/3 77/123/3
f 78/124/3 76/125/3 79/126/3 80/127/3
f 63/128/33 82/129/33 69/120/33 77/123/33
f 53/111/34 71/130/34 69/131/34 82/108/34
f 50/132/35 60/133/35 75/116/35 70/119/35
f 57/79/36 50/132/36 70/119/36 73/63/36
f 60/133/5 61/134/5 76/117/5 75/116/5
f 68/135/37 80/127/37 79/126/37 76/125/37 61/136/37 67/137/37
f 63/138/2 82/139/2 81/28/2 85/27/2
f 63/109/38 77/140/38 78/141/38 65/110/38
f 65/142/5 78/143/5 80/127/5 68/135/5
f 89/144/1 87/145/1 94/146/1
f 88/147/6 86/148/6 92/149/6 90/150/6
f 87/145/1 89/144/1 93/151/1 91/152/1
f 88/153/39 89/154/39 94/155/39 95/156/39
f 86/148/6 88/147/6 95/157/6
f 93/151/1 100/158/1 91/152/1
f 90/159/40 101/160/40 100/161/40 93/162/40
f 92/149/6 101/163/6 90/150/6
f 90/164/41 93/165/41 104/166/41 105/167/41
f 39/168/42 74/169/42 72/170/42 76/171/42 78/172/42 71/173/42 58/174/42 38/175/42 43/176/42 41/177/42
f 103/178/5 105/179/5 104/180/5 102/181/5
f 89/182/43 88/183/43 103/184/43 102/185/43
f 88/186/44 90/187/44 105/188/44 103/189/44
f 93/190/45 89/191/45 102/192/45 104/193/45
f 38/175/46 58/174/46 25/194/46
f 53/195/47 58/174/47 71/173/47
l 96 86
l 99 89
l 87 97
l 88 98
l 96 92
l 99 93
l 91 97
l 90 98
