# Blender v2.79 (sub 0) OBJ File: 'robo_idle.blend'
# www.blender.org
mtllib robo.mtl
o robo_Untitled.015
v 0.164131 0.799833 0.840390
v -0.135245 0.799808 0.840464
v 0.164110 0.692403 0.718429
v -0.135266 0.692379 0.718503
v 0.163998 1.406732 0.507151
v -0.135378 1.406707 0.507223
v 0.163990 1.285807 0.433155
v -0.135385 1.285783 0.433229
v 0.164104 0.688538 0.693287
v -0.135272 0.688512 0.693360
v 0.164033 1.043743 0.525805
v -0.135342 1.043719 0.525879
v 0.184059 0.642184 0.652728
v -0.155239 0.642157 0.652812
v 0.183984 1.063299 0.489983
v -0.155314 1.063270 0.490066
v 0.014409 0.891162 0.659762
v 0.168096 0.944381 0.654880
v 0.168097 0.901212 0.628718
v 0.168107 0.856973 0.653023
v 0.168116 0.855901 0.703488
v 0.168115 0.899068 0.729648
v 0.168105 0.943308 0.705345
v 0.099159 1.249252 0.444323
v -0.085749 1.249242 0.444352
v 0.099162 1.219783 0.455581
v -0.085745 1.219773 0.455611
v 0.114223 1.190315 0.466837
v -0.100799 1.190304 0.466872
v 0.114226 1.160847 0.478096
v -0.100795 1.160835 0.478130
v 0.122958 1.131379 0.489354
v -0.109520 1.131366 0.489391
v 0.122961 1.101910 0.500612
v -0.109517 1.101897 0.500649
v 0.163186 0.466441 0.340821
v -0.134720 0.466407 0.340875
v 0.163175 0.416965 0.297977
v -0.134731 0.416932 0.298031
v 0.163110 0.710841 0.074714
v -0.134796 0.710807 0.074768
v 0.163087 0.556706 -0.144805
v -0.134818 0.556673 -0.144751
v 0.163130 0.494283 -0.154792
v -0.134775 0.494249 -0.154738
v 0.133766 0.817881 0.753350
v -0.105227 0.817853 0.753393
v 0.133719 0.432428 0.263776
v -0.105273 0.432400 0.263819
v 0.133720 1.007117 0.620478
v -0.105272 1.007090 0.620522
v 0.133660 0.677606 0.091625
v -0.105332 0.677579 0.091669
v -0.806976 -0.118304 0.071921
v -0.811762 -0.053851 -0.043777
v -0.811788 0.013767 0.076288
v -0.811774 0.083937 -0.042304
v 0.133701 0.635214 0.119333
v -0.105291 0.635233 0.119372
v 0.133656 -0.031303 0.145467
v -0.105337 -0.031283 0.145507
v 0.133659 0.553945 -0.070081
v -0.105334 0.553965 -0.070041
v 0.133607 -0.027801 -0.154092
v -0.105386 -0.027781 -0.154053
v 0.133636 -0.118304 0.071921
v -0.105356 -0.118284 0.071961
v 0.133611 -0.116497 -0.082600
v -0.105381 -0.116477 -0.082561
v 0.138422 0.015468 -0.082816
v 0.138423 -0.053851 -0.043777
v 0.138436 -0.054702 0.035775
v 0.138448 0.013767 0.076288
v 0.138447 0.083087 0.037249
v 0.138434 0.083937 -0.042304
vt 0.012695 0.351562
vt 0.149414 0.066406
vt 0.036133 0.056641
vt 0.150391 0.067383
vt 0.013672 0.352539
vt 0.126953 0.361328
vt 0.381836 0.362305
vt 0.260742 0.070312
vt 0.268555 0.365234
vt 0.374023 0.067383
vt 0.198242 0.364258
vt 0.298828 0.060547
vt 0.190430 0.069336
vt 0.339844 0.352539
vt 0.416992 0.156250
vt 0.027344 0.016602
vt 0.027344 0.156250
vt 0.416992 0.016602
vt 0.407227 0.279297
vt 0.027344 0.418945
vt 0.407227 0.418945
vt 0.027344 0.279297
vt 0.416992 0.332031
vt 0.027344 0.176758
vt 0.039062 0.293945
vt 0.416992 0.157227
vt 0.289062 0.229492
vt 0.199219 0.369141
vt 0.289062 0.369141
vt 0.199219 0.229492
vt 0.039062 0.141602
vt 0.416992 0.278320
vt 0.416992 0.103516
vt 0.027344 0.258789
vt 0.484375 0.016602
vt 0.484375 0.156250
vt 0.355469 0.229492
vt 0.473633 0.279297
vt 0.467773 0.199219
vt 0.467773 0.289062
vt 0.467773 0.146484
vt 0.467773 0.236328
vt 0.321289 0.524414
vt 0.390625 0.658203
vt 0.393555 0.525391
vt 0.321289 0.650391
vt 0.107422 0.821289
vt 0.118164 0.970703
vt 0.173828 0.939453
vt 0.050781 0.853516
vt 0.309570 0.837891
vt 0.173828 0.524414
vt 0.173828 0.837891
vt 0.309570 0.524414
vt 0.050781 0.540039
vt 0.123047 0.524414
vt 0.380859 0.981445
vt 0.321289 0.944336
vt 0.309570 0.651367
vt 0.309570 0.524414
vt 0.173828 0.973633
vt 0.291992 0.837891
vt 0.173828 0.837891
vt 0.291992 0.973633
vt 0.133789 0.528320
vt 0.123047 0.706055
vt 0.310547 0.823242
vt 0.118164 0.907227
vt 0.263672 0.935547
vt 0.272461 0.907227
vt 0.127930 0.935547
vt 0.419922 0.894531
vt 0.446289 0.703125
vt 0.419922 0.690430
vt 0.434570 0.880859
vt 0.444336 0.934570
vt 0.299805 0.916016
vt 0.290039 0.934570
vt 0.435547 0.916016
vt 0.419922 0.690430
vt 0.405273 0.880859
vt 0.419922 0.894531
vt 0.393555 0.703125
vt 0.357422 0.549805
vt 0.249023 0.632812
vt 0.357422 0.715820
vt 0.145508 0.715820
vt 0.145508 0.549805
vt 0.036133 0.641602
vt 0.223633 0.591797
vt 0.034180 0.599609
vt 0.225586 0.633789
vt 0.206055 0.858398
vt 0.040039 0.705078
vt 0.056641 0.861328
vt 0.231445 0.710938
vt 0.207512 0.924576
vt 0.000154 0.673084
vt 0.000154 0.924576
vt 0.207512 0.673084
vt 0.470703 0.732422
vt 0.465820 0.776367
vt 0.453125 0.576172
vt 0.467773 0.726562
vt 0.350586 0.919922
vt 0.143555 0.599609
vt 0.143555 0.919922
vt 0.214844 0.896484
vt 0.046875 0.896484
vt 0.458984 0.759766
vt 0.350586 0.599609
vt 0.414062 0.689453
vt 0.302734 0.625977
vt 0.339844 0.689453
vt 0.414062 0.561523
vt 0.339844 0.561523
vt 0.450195 0.625977
vt 0.212891 0.298828
vt 0.177734 0.236328
vt 0.177734 0.278320
vt 0.249023 0.236328
vt 0.212891 0.215820
vt 0.249023 0.278320
vt 0.105469 0.096680
vt 0.256836 0.122070
vt 0.256836 0.096680
vt 0.105469 0.122070
vt 0.106445 0.141602
vt 0.281250 0.167969
vt 0.281250 0.141602
vt 0.106445 0.167969
vt 0.106445 0.167969
vt 0.295898 0.194336
vt 0.295898 0.167969
vt 0.106445 0.194336
vn 0.0002 -0.7857 0.6186
vn -0.0002 0.8487 -0.5288
vn -1.0000 -0.0001 0.0002
vn 1.0000 0.0001 -0.0002
vn 0.0002 0.0392 0.9992
vn -0.0002 0.1429 -0.9897
vn -1.0000 0.0001 0.0002
vn -0.0001 -0.9999 -0.0117
vn 1.0000 -0.0001 -0.0002
vn 0.0001 -0.6456 0.7637
vn -0.0002 -0.6276 -0.7786
vn 0.0002 -0.7504 0.6610
vn -0.0003 0.5219 -0.8530
vn 0.0002 0.4813 0.8766
vn 0.0001 -0.9884 0.1520
vn -0.0002 -0.3575 -0.9339
vn 0.0002 -0.6584 0.7526
vn 0.0002 -0.6585 0.7526
vn 0.9391 0.1240 0.3204
vn 0.7697 0.2724 0.5774
vn 0.0000 0.8777 0.4792
vn -0.7971 0.2175 0.5633
vn -0.9427 0.1421 0.3018
vn -0.0003 0.0281 -0.9996
vn -0.4938 -0.3135 -0.8111
vn -0.0001 -0.7022 -0.7120
vn 0.4934 -0.3135 -0.8114
vn 0.0003 -0.6547 0.7559
vn 0.0002 -0.6546 0.7559
vn -0.0001 0.8185 -0.5745
vn -0.0002 0.8184 -0.5746
vn -0.0003 0.8185 -0.5745
vn 0.0000 0.7365 0.6764
vn -1.0000 -0.0002 0.0003
vn -1.0000 0.0000 0.0002
vn -1.0000 -0.0001 0.0003
vn -1.0000 0.0001 0.0003
vn 1.0000 0.0000 -0.0003
vn 0.0001 -0.9857 -0.1683
vn 0.0000 -0.9857 -0.1684
vn -0.0002 0.1580 -0.9874
vn -0.0001 0.1580 -0.9874
vn -1.0000 -0.0008 -0.0001
vn -1.0000 -0.0007 -0.0000
vn -1.0000 -0.0006 -0.0001
vn 1.0000 0.0007 0.0000
vn 0.0001 -0.9857 -0.1684
vn -0.0001 -0.3569 -0.9341
usemtl 03_-_Default_#4
s off
f 49/1/1 46/2/1 47/3/1
f 46/4/1 49/5/1 48/6/1
f 53/7/2 50/8/2 52/9/2
f 50/8/2 53/7/2 51/10/2
f 53/11/3 47/12/3 51/13/3
f 47/12/3 53/11/3 49/14/3
f 50/8/4 48/6/4 52/9/4
f 48/6/4 50/8/4 46/4/4
f 61/15/5 58/16/5 59/17/5
f 58/16/5 61/15/5 60/18/5
f 65/19/6 62/20/6 64/21/6
f 62/20/6 65/19/6 63/22/6
f 65/23/7 59/24/7 63/25/7
f 59/24/7 65/23/7 61/26/7
f 68/27/8 67/28/8 69/29/8
f 67/28/8 68/27/8 66/30/8
f 62/31/9 60/32/9 64/33/9
f 60/32/9 62/31/9 58/34/9
f 66/35/10 61/15/10 67/36/10
f 61/15/10 66/35/10 60/18/10
f 69/29/11 64/37/11 68/27/11
f 64/21/11 69/38/11 65/19/11
f 67/39/7 65/23/7 69/40/7
f 65/23/7 67/39/7 61/26/7
f 68/41/9 60/32/9 66/42/9
f 60/32/9 68/41/9 64/33/9
usemtl 01_-_Default
f 4/43/12 1/44/12 2/45/12
f 1/44/12 4/43/12 3/46/12
f 8/47/13 5/48/13 7/49/13
f 5/48/13 8/47/13 6/50/13
f 6/51/14 1/52/14 5/53/14
f 1/52/14 6/51/14 2/54/14
f 8/47/3 2/55/3 6/50/3
f 2/55/3 8/47/3 4/56/3
f 5/57/4 3/46/4 7/58/4
f 3/46/4 5/57/4 1/44/4
f 9/59/15 4/43/15 10/60/15
f 4/43/15 9/59/15 3/46/15
f 12/61/16 7/62/16 11/63/16
f 7/62/16 12/61/16 8/64/16
f 10/65/3 8/47/3 12/66/3
f 8/47/3 10/65/3 4/56/3
f 11/67/4 3/46/4 9/59/4
f 3/46/4 11/67/4 7/58/4
f 13/68/17 10/69/17 14/70/17
f 10/69/18 13/68/18 9/71/18
f 15/72/19 9/73/19 13/74/19
f 9/73/20 15/72/20 11/75/20
f 16/76/21 11/77/21 15/78/21
f 11/77/21 16/76/21 12/79/21
f 14/80/22 12/81/22 16/82/22
f 12/81/23 14/80/23 10/83/23
f 14/84/24 17/85/24 13/86/24
f 13/86/25 17/85/25 15/87/25
f 15/87/26 17/85/26 16/88/26
f 16/88/27 17/85/27 14/84/27
f 39/89/28 36/90/29 37/91/29
f 36/90/29 39/89/28 38/92/29
f 43/93/30 40/94/31 42/95/31
f 40/94/31 43/93/32 41/96/31
f 41/97/33 36/98/33 40/99/33
f 36/98/33 41/97/33 37/100/33
f 43/93/34 37/101/3 41/96/3
f 37/101/35 43/93/36 39/102/37
f 40/103/4 38/92/4 42/104/4
f 38/92/38 40/103/38 36/90/38
f 44/105/39 39/106/40 45/107/39
f 45/108/41 42/95/41 44/109/41
f 42/95/41 45/108/41 43/93/42
f 43/93/43 45/108/44 39/102/45
f 38/92/46 44/110/46 42/104/46
f 39/106/47 44/105/39 38/111/39
f 70/112/9 72/113/9 71/114/9
f 72/113/9 74/115/9 73/116/9
f 70/112/9 74/115/9 72/113/9
f 75/117/9 74/115/9 70/112/9
usemtl 03_-_Default_#2
f 18/118/4 20/119/4 19/120/4
f 20/119/4 22/121/4 21/122/4
f 18/118/4 22/121/4 20/119/4
f 23/123/4 22/121/4 18/118/4
f 24/124/48 27/125/48 25/126/48
f 27/125/48 24/124/48 26/127/48
f 28/128/48 31/129/48 29/130/48
f 31/129/48 28/128/48 30/131/48
f 32/132/48 35/133/48 33/134/48
f 35/133/48 32/132/48 34/135/48
