# Blender v2.79 (sub 0) OBJ File: 'robo_idle.blend'
# www.blender.org
mtllib robo.mtl
o robo_Untitled.015
v -0.117037 0.635066 0.120093
v 0.121956 0.635087 0.120137
v -0.116988 -0.031482 0.145420
v 0.122005 -0.031460 0.145464
v -0.116990 0.554027 -0.069419
v 0.122003 0.554048 -0.069375
v -0.116933 -0.027617 -0.154135
v 0.122059 -0.027596 -0.154091
v -0.116967 -0.118393 0.071769
v 0.122026 -0.118372 0.071813
v -0.116938 -0.116400 -0.082750
v 0.122054 -0.116379 -0.082707
v -0.121750 0.015566 -0.082807
v -0.121751 -0.053801 -0.043852
v -0.121766 -0.054748 0.035700
v -0.121779 0.013672 0.076296
v -0.121778 0.083039 0.037340
v -0.121763 0.083985 -0.042211
v -0.146525 0.410921 0.342728
v 0.151380 0.410879 0.342777
v -0.146515 0.369003 0.292466
v 0.151391 0.368961 0.292514
v -0.146450 0.695037 0.119519
v 0.151456 0.694995 0.119567
v -0.146427 0.578323 -0.121984
v 0.151478 0.578281 -0.121936
v -0.146470 0.518327 -0.141907
v 0.151436 0.518285 -0.141859
v -0.117105 0.691232 0.806535
v 0.121888 0.691197 0.806572
v -0.117058 0.389778 0.261206
v 0.121934 0.389744 0.261245
v -0.117059 0.899419 0.705920
v 0.121933 0.899386 0.705959
v -0.117000 0.659510 0.130849
v 0.121993 0.659476 0.130888
v -0.147470 0.806759 0.915058
v 0.151906 0.806783 0.915132
v -0.147449 0.648076 0.879909
v 0.151927 0.648100 0.879983
v -0.147337 1.100400 0.288041
v 0.152038 1.100422 0.288114
v -0.147330 0.959102 0.299588
v 0.152046 0.959126 0.299663
v -0.147443 0.630128 0.861883
v 0.151933 0.630150 0.861957
v -0.147373 0.818239 0.517158
v 0.152004 0.818263 0.517232
v -0.167398 0.568774 0.856460
v 0.171900 0.568802 0.856545
v -0.167323 0.812910 0.476696
v 0.171975 0.812935 0.476779
v 0.002251 0.774004 0.715322
v -0.151435 0.814106 0.679996
v -0.151436 0.763814 0.684323
v -0.151446 0.742418 0.730040
v -0.151455 0.771311 0.771429
v -0.151454 0.821600 0.767101
v -0.151444 0.842998 0.721385
v -0.082498 0.936165 0.330164
v 0.102409 0.936174 0.330193
v -0.082501 0.919004 0.356634
v 0.102406 0.919013 0.356664
v -0.097562 0.901843 0.383102
v 0.117460 0.901854 0.383136
v -0.097565 0.884682 0.409572
v 0.117456 0.884693 0.409607
v -0.106297 0.867521 0.436041
v 0.126181 0.867533 0.436079
v -0.106300 0.850361 0.462511
v 0.126178 0.850372 0.462549
vt 0.416992 0.156250
vt 0.027344 0.156250
vt 0.027344 0.016602
vt 0.416992 0.016602
vt 0.407227 0.279297
vt 0.407227 0.418945
vt 0.027344 0.418945
vt 0.027344 0.279297
vt 0.416992 0.332031
vt 0.039062 0.293945
vt 0.027344 0.176758
vt 0.416992 0.157227
vt 0.289062 0.229492
vt 0.289062 0.369141
vt 0.199219 0.369141
vt 0.199219 0.229492
vt 0.039062 0.141602
vt 0.416992 0.103516
vt 0.416992 0.278320
vt 0.027344 0.258789
vt 0.484375 0.016602
vt 0.484375 0.156250
vt 0.355469 0.229492
vt 0.473633 0.279297
vt 0.467773 0.199219
vt 0.467773 0.289062
vt 0.467773 0.146484
vt 0.467773 0.236328
vt 0.012695 0.351562
vt 0.036133 0.056641
vt 0.149414 0.066406
vt 0.150391 0.067383
vt 0.126953 0.361328
vt 0.013672 0.352539
vt 0.381836 0.362305
vt 0.268555 0.365234
vt 0.260742 0.070312
vt 0.374023 0.067383
vt 0.198242 0.364258
vt 0.190430 0.069336
vt 0.298828 0.060547
vt 0.339844 0.352539
vt 0.414062 0.689453
vt 0.339844 0.689453
vt 0.302734 0.625977
vt 0.339844 0.561523
vt 0.414062 0.561523
vt 0.450195 0.625977
vt 0.036133 0.641602
vt 0.034180 0.599609
vt 0.223633 0.591797
vt 0.225586 0.633789
vt 0.206055 0.858398
vt 0.056641 0.861328
vt 0.040039 0.705078
vt 0.231445 0.710938
vt 0.207512 0.924576
vt 0.000154 0.924576
vt 0.000154 0.673084
vt 0.207512 0.673084
vt 0.470703 0.732422
vt 0.465820 0.776367
vt 0.453125 0.576172
vt 0.467773 0.726562
vt 0.350586 0.919922
vt 0.143555 0.919922
vt 0.143555 0.599609
vt 0.214844 0.896484
vt 0.046875 0.896484
vt 0.458984 0.759766
vt 0.350586 0.599609
vt 0.321289 0.524414
vt 0.393555 0.525391
vt 0.390625 0.658203
vt 0.321289 0.650391
vt 0.107422 0.821289
vt 0.173828 0.939453
vt 0.118164 0.970703
vt 0.050781 0.853516
vt 0.309570 0.837891
vt 0.173828 0.837891
vt 0.173828 0.524414
vt 0.309570 0.524414
vt 0.050781 0.540039
vt 0.123047 0.524414
vt 0.380859 0.981445
vt 0.321289 0.944336
vt 0.309570 0.651367
vt 0.309570 0.524414
vt 0.173828 0.973633
vt 0.173828 0.837891
vt 0.291992 0.837891
vt 0.291992 0.973633
vt 0.133789 0.528320
vt 0.123047 0.706055
vt 0.310547 0.823242
vt 0.118164 0.907227
vt 0.272461 0.907227
vt 0.263672 0.935547
vt 0.127930 0.935547
vt 0.419922 0.894531
vt 0.419922 0.690430
vt 0.446289 0.703125
vt 0.434570 0.880859
vt 0.444336 0.934570
vt 0.290039 0.934570
vt 0.299805 0.916016
vt 0.435547 0.916016
vt 0.419922 0.690430
vt 0.419922 0.894531
vt 0.405273 0.880859
vt 0.393555 0.703125
vt 0.357422 0.549805
vt 0.357422 0.715820
vt 0.249023 0.632812
vt 0.145508 0.715820
vt 0.145508 0.549805
vt 0.212891 0.298828
vt 0.177734 0.278320
vt 0.177734 0.236328
vt 0.212891 0.215820
vt 0.249023 0.236328
vt 0.249023 0.278320
vt 0.105469 0.096680
vt 0.256836 0.096680
vt 0.256836 0.122070
vt 0.105469 0.122070
vt 0.106445 0.141602
vt 0.281250 0.141602
vt 0.281250 0.167969
vt 0.106445 0.167969
vt 0.106445 0.167969
vt 0.295898 0.167969
vt 0.295898 0.194336
vt 0.106445 0.194336
vn -0.0002 0.0380 0.9993
vn 0.0002 0.1441 -0.9896
vn 1.0000 0.0001 0.0002
vn 0.0001 -0.9999 -0.0129
vn -1.0000 -0.0001 -0.0002
vn -0.0001 -0.6465 0.7629
vn 0.0002 -0.6266 -0.7793
vn -0.0002 -0.8752 0.4838
vn 0.0002 0.9229 -0.3850
vn 1.0000 -0.0001 0.0002
vn -1.0000 0.0001 -0.0002
vn -0.0002 -0.7679 0.6405
vn -0.0002 -0.7680 0.6405
vn -0.0003 -0.7679 0.6405
vn 0.0001 0.9003 -0.4352
vn 0.0002 0.9004 -0.4351
vn 0.0001 0.9004 -0.4351
vn -0.0000 0.6178 0.7864
vn 1.0000 -0.0000 0.0003
vn 1.0000 0.0000 0.0002
vn 1.0000 -0.0000 0.0001
vn 1.0000 0.0000 0.0004
vn -1.0000 0.0001 -0.0003
vn -0.0001 -0.9457 -0.3251
vn -0.0002 -0.9457 -0.3251
vn 0.0002 0.3152 -0.9490
vn 0.0002 0.3150 -0.9491
vn 1.0000 -0.0007 0.0000
vn 1.0000 -0.0007 -0.0002
vn 1.0000 -0.0007 -0.0001
vn -1.0000 0.0007 0.0001
vn -0.0002 -0.9457 -0.3250
vn -0.0002 -0.2163 0.9763
vn 0.0003 -0.0815 -0.9967
vn -0.0002 0.9056 0.4241
vn -0.0001 -0.7086 0.7056
vn 0.0002 -0.8394 -0.5435
vn -0.0002 -0.0880 0.9961
vn -0.9391 0.2890 0.1856
vn -0.7697 0.5605 0.3057
vn -0.0000 0.9914 -0.1306
vn 0.7971 0.5079 0.3266
vn 0.9427 0.2927 0.1599
vn 0.0003 -0.5668 -0.8239
vn 0.4938 -0.7315 -0.4702
vn 0.0001 -0.9870 -0.1610
vn -0.4934 -0.7316 -0.4704
vn -1.0000 0.0000 -0.0002
vn 0.0001 -0.8391 -0.5440
usemtl 03_-_Default_#4
s off
f 4/1/1 2/2/1 1/3/1
f 1/3/1 3/4/1 4/1/1
f 8/5/2 7/6/2 5/7/2
f 5/7/2 6/8/2 8/5/2
f 8/9/3 6/10/3 2/11/3
f 2/11/3 4/12/3 8/9/3
f 11/13/4 12/14/4 10/15/4
f 10/15/4 9/16/4 11/13/4
f 5/17/5 7/18/5 3/19/5
f 3/19/5 1/20/5 5/17/5
f 9/21/6 10/22/6 4/1/6
f 4/1/6 3/4/6 9/21/6
f 12/14/7 11/13/7 7/23/7
f 7/6/7 8/5/7 12/24/7
f 10/25/3 12/26/3 8/9/3
f 8/9/3 4/12/3 10/25/3
f 11/27/5 9/28/5 3/19/5
f 3/19/5 7/18/5 11/27/5
f 32/29/8 30/30/8 29/31/8
f 29/32/8 31/33/8 32/34/8
f 36/35/9 35/36/9 33/37/9
f 33/37/9 34/38/9 36/35/9
f 36/39/10 34/40/10 30/41/10
f 30/41/10 32/42/10 36/39/10
f 33/37/11 35/36/11 31/33/11
f 31/33/11 29/32/11 33/37/11
usemtl 01_-_Default
f 13/43/5 14/44/5 15/45/5
f 15/45/5 16/46/5 17/47/5
f 13/43/5 15/45/5 17/47/5
f 18/48/5 13/43/5 17/47/5
f 22/49/12 20/50/13 19/51/13
f 19/51/13 21/52/13 22/49/14
f 26/53/15 25/54/16 23/55/16
f 23/55/16 24/56/16 26/53/17
f 24/57/18 23/58/18 19/59/18
f 19/59/18 20/60/18 24/57/18
f 26/53/19 24/56/10 20/61/10
f 20/61/20 22/62/21 26/53/22
f 23/63/11 25/64/11 21/52/11
f 21/52/23 19/51/23 23/63/23
f 27/65/24 28/66/24 22/67/25
f 28/68/26 27/69/26 25/54/26
f 25/54/26 26/53/27 28/68/26
f 26/53/28 22/62/29 28/68/30
f 21/52/31 25/64/31 27/70/31
f 22/67/32 21/71/24 27/65/24
f 40/72/33 38/73/33 37/74/33
f 37/74/33 39/75/33 40/72/33
f 44/76/34 43/77/34 41/78/34
f 41/78/34 42/79/34 44/76/34
f 42/80/35 41/81/35 37/82/35
f 37/82/35 38/83/35 42/80/35
f 44/76/3 42/79/3 38/84/3
f 38/84/3 40/85/3 44/76/3
f 41/86/5 43/87/5 39/75/5
f 39/75/5 37/74/5 41/86/5
f 45/88/36 46/89/36 40/72/36
f 40/72/36 39/75/36 45/88/36
f 48/90/37 47/91/37 43/92/37
f 43/92/37 44/93/37 48/90/37
f 46/94/3 48/95/3 44/76/3
f 44/76/3 40/85/3 46/94/3
f 47/96/5 45/88/5 39/75/5
f 39/75/5 43/87/5 47/96/5
f 49/97/38 50/98/38 46/99/38
f 46/99/38 45/100/38 49/97/38
f 51/101/39 49/102/39 45/103/39
f 45/103/40 47/104/40 51/101/40
f 52/105/41 51/106/41 47/107/41
f 47/107/41 48/108/41 52/105/41
f 50/109/42 52/110/42 48/111/42
f 48/111/43 46/112/43 50/109/43
f 50/113/44 49/114/44 53/115/44
f 49/114/45 51/116/45 53/115/45
f 51/116/46 52/117/46 53/115/46
f 52/117/47 50/113/47 53/115/47
usemtl 03_-_Default_#2
f 54/118/48 55/119/48 56/120/48
f 56/120/48 57/121/48 58/122/48
f 54/118/48 56/120/48 58/122/48
f 59/123/48 54/118/48 58/122/48
f 60/124/49 61/125/49 63/126/49
f 63/126/49 62/127/49 60/124/49
f 64/128/49 65/129/49 67/130/49
f 67/130/49 66/131/49 64/128/49
f 68/132/49 69/133/49 71/134/49
f 71/134/49 70/135/49 68/132/49
