# Blender v2.79 (sub 0) OBJ File: 'robo_posed.blend'
# www.blender.org
mtllib robo.mtl
o robo_Untitled.015
v -0.117042 0.609175 0.112108
v 0.121951 0.609196 0.112147
v -0.116996 -0.027743 0.146188
v 0.121997 -0.027722 0.146227
v -0.116998 0.620556 -0.088696
v 0.121994 0.620577 -0.088657
v -0.116946 -0.031554 -0.153367
v 0.122046 -0.031533 -0.153328
v -0.116976 -0.116513 0.074788
v 0.122016 -0.116492 0.074827
v -0.116951 -0.118479 -0.079732
v 0.122042 -0.118458 -0.079693
v -0.121761 0.013442 -0.083169
v -0.121762 -0.054904 -0.042449
v -0.121776 -0.053813 0.037100
v -0.121788 0.015625 0.075930
v -0.121787 0.083971 0.035210
v -0.121774 0.082880 -0.044340
v -0.146526 0.404052 0.331265
v 0.151380 0.404009 0.331312
v -0.146515 0.356072 0.264577
v 0.151391 0.356029 0.264625
v -0.146450 0.692498 0.113679
v 0.151456 0.692455 0.113727
v -0.146427 0.597165 -0.201165
v 0.151479 0.597122 -0.201117
v -0.146470 0.469361 -0.215349
v 0.151436 0.469318 -0.215301
v -0.117105 0.719361 0.780524
v 0.121887 0.719326 0.780560
v -0.117059 0.415183 0.235479
v 0.121934 0.415149 0.235517
v -0.117060 0.883970 0.704593
v 0.121933 0.883936 0.704632
v -0.117000 0.617500 0.142056
v 0.121993 0.617466 0.142094
v -0.147471 0.785370 0.911897
v 0.151905 0.785391 0.911973
v -0.147450 0.628075 0.870981
v 0.151926 0.628096 0.871057
v -0.147338 1.101694 0.296013
v 0.152038 1.101714 0.296087
v -0.147330 0.960070 0.302397
v 0.152046 0.960091 0.302472
v -0.147444 0.610797 0.852313
v 0.151932 0.610817 0.852388
v -0.147373 0.811362 0.514681
v 0.152003 0.811383 0.514756
v -0.167399 0.549682 0.844655
v 0.171899 0.549706 0.844741
v -0.167324 0.807512 0.474051
v 0.171974 0.807535 0.474136
v 0.002250 0.759925 0.711099
v -0.151436 0.801289 0.677260
v -0.151437 0.750873 0.679749
v -0.151447 0.727823 0.724655
v -0.151456 0.755186 0.767071
v -0.151455 0.805600 0.764581
v -0.151445 0.828652 0.719676
v -0.082499 0.936032 0.332115
v 0.102409 0.936040 0.332145
v -0.082502 0.917917 0.357941
v 0.102405 0.917925 0.357971
v -0.097563 0.899801 0.383765
v 0.117459 0.899810 0.383800
v -0.097566 0.881685 0.409591
v 0.117456 0.881695 0.409627
v -0.106298 0.863571 0.435417
v 0.126181 0.863581 0.435455
v -0.106301 0.845455 0.461243
v 0.126177 0.845466 0.461281
vt 0.571864 0.647897
vt 0.570437 0.674842
vt 0.520804 0.672215
vt 0.526233 0.647762
vt 0.107200 0.931987
vt 0.107191 0.885105
vt 0.215616 0.885085
vt 0.215625 0.931967
vt 0.694067 0.985084
vt 0.647185 0.985084
vt 0.647185 0.944495
vt 0.694067 0.944495
vt 0.425535 0.983428
vt 0.478669 0.983428
vt 0.475544 0.993073
vt 0.428661 0.993073
vt 0.966827 0.702802
vt 0.913693 0.702802
vt 0.916819 0.696412
vt 0.963701 0.696412
vt 0.186534 0.977284
vt 0.215491 0.977284
vt 0.215491 0.982224
vt 0.186534 0.982225
vt 0.570982 0.535158
vt 0.641682 0.535158
vt 0.637233 0.544269
vt 0.575860 0.540336
vt 0.905428 0.657931
vt 0.868002 0.657932
vt 0.867998 0.560455
vt 0.905424 0.560454
vt 0.004132 0.936729
vt 0.004137 0.890077
vt 0.081359 0.890077
vt 0.081354 0.936729
vt 0.942024 0.971092
vt 0.895372 0.971096
vt 0.895375 0.950959
vt 0.942027 0.950955
vt 0.595169 0.353145
vt 0.602015 0.349193
vt 0.608860 0.353145
vt 0.608860 0.361050
vt 0.602015 0.365002
vt 0.595169 0.361050
vt 0.167077 0.865753
vt 0.167077 0.814238
vt 0.220183 0.794717
vt 0.224348 0.806889
vt 0.185588 0.873679
vt 0.284331 0.813988
vt 0.243635 0.837264
vt 0.232613 0.817992
vt 0.273310 0.794717
vt 0.690969 0.822800
vt 0.593547 0.826064
vt 0.592037 0.791199
vt 0.689729 0.794439
vt 0.767638 0.434228
vt 0.767639 0.534112
vt 0.730212 0.534112
vt 0.730212 0.434228
vt 0.848307 0.560454
vt 0.859733 0.662437
vt 0.848376 0.676195
vt 0.824176 0.676195
vt 0.812819 0.662437
vt 0.816886 0.562636
vt 0.730212 0.416388
vt 0.767638 0.416388
vt 0.730212 0.392189
vt 0.767638 0.392189
vt 0.146887 0.840042
vt 0.122687 0.840042
vt 0.111330 0.826284
vt 0.122755 0.724301
vt 0.154176 0.726483
vt 0.158244 0.826284
vt 0.957944 0.119841
vt 0.968733 0.113612
vt 0.979523 0.119841
vt 0.979523 0.132299
vt 0.968733 0.138529
vt 0.957944 0.132299
vt 0.895372 0.899444
vt 0.942024 0.899440
vt 0.767638 0.374349
vt 0.730212 0.374349
vt 0.730214 0.271727
vt 0.767640 0.271727
vt 0.593277 0.753794
vt 0.690969 0.757033
vt 0.799553 0.713093
vt 0.812415 0.712802
vt 0.813473 0.759442
vt 0.800611 0.759733
vt 0.926561 0.050784
vt 0.926561 0.004132
vt 0.983142 0.004132
vt 0.983142 0.050784
vt 0.813473 0.816023
vt 0.765121 0.833797
vt 0.751294 0.819156
vt 0.889657 0.245632
vt 0.896149 0.148371
vt 0.924453 0.150550
vt 0.924453 0.248296
vt 0.381734 0.794717
vt 0.387289 0.819555
vt 0.385924 0.823298
vt 0.324542 0.819515
vt 0.816593 0.257518
vt 0.745894 0.257518
vt 0.750772 0.252340
vt 0.812144 0.248408
vt 0.524998 0.643850
vt 0.571864 0.643572
vt 0.918296 0.077371
vt 0.860891 0.077371
vt 0.889591 0.040194
vt 0.860925 0.004133
vt 0.918261 0.004132
vt 0.950777 0.877452
vt 0.984449 0.877452
vt 0.984449 0.882392
vt 0.950777 0.882392
vt 0.938533 0.803301
vt 0.974939 0.803301
vt 0.974939 0.808241
vt 0.938533 0.808241
vt 0.413178 0.672083
vt 0.424142 0.652967
vt 0.464064 0.647530
vn -0.0002 -0.2517 0.9678
vn -0.0002 0.8895 0.4569
vn 0.0002 -0.8190 -0.5737
vn -0.0002 -0.1243 0.9923
vn -0.0000 0.9955 -0.0943
vn 0.0001 -0.8187 -0.5742
vn -0.8966 0.3719 0.2405
vn 0.0002 0.9037 -0.4281
vn -0.0001 -0.9733 -0.2297
vn -0.0002 -0.9733 -0.2297
vn 0.0002 0.1103 -0.9939
vn 0.0002 0.1102 -0.9939
vn -1.0000 0.0000 -0.0002
vn 1.0000 -0.0001 0.0002
vn 1.0000 -0.0002 0.0001
vn 1.0000 -0.0002 0.0000
vn 0.0003 -0.0450 -0.9990
vn -1.0000 0.0002 -0.0002
vn -0.0002 0.0534 0.9986
vn -1.0000 -0.0001 -0.0002
vn -0.0001 -0.6267 0.7792
vn 0.0001 -0.9999 0.0127
vn 1.0000 0.0001 0.0002
vn 0.0000 0.9571 -0.2899
vn 0.0002 0.9571 -0.2898
vn 0.0002 0.0987 -0.9951
vn 0.0002 -0.6464 -0.7630
vn -0.0002 -0.8732 0.4873
vn -0.0002 -0.8117 0.5841
vn -0.0002 -0.8117 0.5840
vn -0.0000 0.6022 0.7983
vn -1.0000 0.0002 -0.0001
vn 1.0000 -0.0002 0.0002
vn 1.0000 0.0001 0.0003
vn 0.8964 0.3721 0.2410
vn -0.0001 -0.7339 0.6793
vn 0.0003 -0.5363 -0.8440
vn 0.4938 -0.7139 -0.4965
vn 0.0001 -0.9804 -0.1969
vn -0.4934 -0.7140 -0.4968
usemtl robo
s off
f 40/1/1 38/2/1 37/3/1 39/4/1
f 42/5/2 41/6/2 37/7/2 38/8/2
f 48/9/3 47/10/3 43/11/3 44/12/3
f 49/13/4 50/14/4 46/15/4 45/16/4
f 52/17/5 51/18/5 47/19/5 48/20/5
f 60/21/6 61/22/6 63/23/6 62/24/6
f 51/25/7 49/26/7 45/27/7 47/28/7
f 36/29/8 35/30/8 33/31/8 34/32/8
f 27/33/9 28/34/9 22/35/10 21/36/9
f 28/37/11 27/38/11 25/39/11 26/40/12
f 54/41/13 55/42/13 56/43/13 57/44/13 58/45/13 59/46/13
f 26/47/14 24/48/15 20/49/15 22/50/16 28/51/15
f 44/52/17 43/53/17 41/54/17 42/55/17
f 33/56/18 35/57/18 31/58/18 29/59/18
f 4/60/19 2/61/19 1/62/19 3/63/19
f 5/64/20 7/65/20 11/66/20 9/67/20 3/68/20 1/69/20
f 9/70/21 10/71/21 4/60/21 3/63/21
f 11/72/22 12/73/22 10/71/22 9/70/22
f 10/74/23 12/75/23 8/76/23 6/77/23 2/78/23 4/79/23
f 13/80/20 14/81/20 15/82/20 16/83/20 17/84/20 18/85/20
f 26/40/24 25/39/25 23/86/25 24/87/25
f 8/88/26 7/89/26 5/90/26 6/91/26
f 12/73/27 11/72/27 7/89/27 8/88/27
f 32/92/28 30/93/28 29/59/28 31/58/28
f 22/94/29 20/95/30 19/96/30 21/97/30
f 24/98/31 23/99/31 19/100/31 20/101/31
f 23/102/32 25/103/32 27/104/32 21/97/32 19/96/32
f 36/105/33 34/106/33 30/107/33 32/108/33
f 44/52/34 42/55/34 38/109/34 40/110/34 46/111/34 48/112/34
f 50/113/35 52/114/35 48/115/35 46/116/35
f 45/117/36 46/118/36 40/1/36 39/4/36
f 50/119/37 49/120/37 53/121/37
f 49/120/38 51/122/38 53/121/38
f 51/122/39 52/123/39 53/121/39
f 52/123/40 50/119/40 53/121/40
f 64/124/6 65/125/6 67/126/6 66/127/6
f 68/128/6 69/129/6 71/130/6 70/131/6
f 41/132/20 43/133/20 47/134/20 45/117/20 39/4/20 37/3/20
