# Blender v2.79 (sub 0) OBJ File: 'puckpartical.blend'
# www.blender.org
mtllib puckpartical.mtl
o Cylinder001.001
v 0.000000 0.831057 0.000000
v -2.121300 0.831057 2.121300
v -3.000000 0.831058 0.000000
v 0.000000 -0.913547 -0.000000
v -2.121300 -0.913546 2.121300
v -3.000000 -0.913546 -0.000000
v -3.000000 0.831058 0.000000
v 0.000000 -0.913547 -0.000000
v 0.000000 0.831057 0.000000
v -3.000000 0.831058 0.000000
v -3.000000 -0.913546 -0.000000
v 0.000000 -0.913547 -0.000000
v 0.000000 0.831057 0.000000
v -2.121300 0.831057 2.121300
v -2.121300 -0.913546 2.121300
v 0.000000 -0.913547 -0.000000
vt 0.997108 0.327527
vt 0.533673 -0.000991
vt 0.997245 0.000243
vt 0.535711 0.327080
vt 0.679187 0.738406
vt 0.271651 0.521379
vt 0.683140 0.524348
vt 0.289581 0.787167
vt 0.686592 0.517521
vt 0.686591 0.787166
vt 0.269935 0.522635
vt 0.680396 0.744654
vt 0.680903 0.521860
vt 0.289581 0.517521
vt 0.111641 0.614288
vt 0.592415 0.614288
vt 0.592415 0.622679
vt 0.111641 0.622679
vt 0.253078 0.790688
vt 0.253078 0.517511
vt 0.688328 0.790688
vt 0.688328 0.517511
vn -0.9239 0.0000 0.3827
vn 0.0000 1.0000 0.0000
vn 0.7071 -0.0000 0.7071
vn -0.0000 -1.0000 -0.0000
vn 0.0000 0.0000 1.0000
vn 0.0000 0.0000 -1.0000
g Cylinder001.001_Cylinder001.001_None
usemtl None
s off
f 2/1/1 6/2/1 5/3/1
f 2/1/1 3/4/1 6/2/1
s 1
f 1/5/2 3/6/2 2/7/2
f 16/8/3 14/9/3 15/10/3
f 8/11/4 5/12/4 6/13/4
f 13/14/3 14/9/3 16/8/3
f 3/15/5 8/16/5 4/17/5 7/18/5
f 11/19/6 10/20/6 12/21/6
f 12/21/6 10/20/6 9/22/6
