# Blender v2.79 (sub 0) OBJ File: 'puckpartical.blend'
# www.blender.org
mtllib puckpartical.mtl
o Cylinder001.001
v 0.000000 0.831057 0.000000
v -2.121300 0.831057 2.121300
v -3.000000 0.831058 0.000000
v 0.000000 -0.913547 -0.000000
v -2.121300 -0.913546 2.121300
v -3.000000 -0.913546 -0.000000
v -3.000000 0.831058 0.000000
v 0.000000 -0.913547 -0.000000
vt 0.679187 0.738406
vt 0.271651 0.521379
vt 0.683140 0.524348
vt 0.997108 0.327527
vt 0.533673 -0.000991
vt 0.997245 0.000243
vt 0.535711 0.327080
vt 0.679728 0.741940
vt 0.271651 0.521766
vt 0.678756 0.522311
vt 0.681121 0.740073
vt 0.273075 0.519012
vt 0.679678 0.519633
vt 0.679961 0.739903
vt 0.269935 0.522635
vt 0.680396 0.744654
vt 0.680903 0.521860
vt 0.680958 0.739777
vt 0.267222 0.516939
vt 0.680958 0.516939
vt 0.111641 0.614288
vt 0.592415 0.614288
vt 0.592415 0.622679
vt 0.111641 0.622679
vn 0.7735 0.5469 -0.3204
vn -0.6892 0.5595 -0.4605
vn -0.1617 0.5595 0.8129
vn -0.6892 -0.5595 -0.4605
vn -0.1617 -0.5595 0.8129
vn 0.7735 -0.5469 -0.3204
vn 0.0000 0.0000 1.0000
g Cylinder001.001_Cylinder001.001_None
usemtl None
s 1
f 1/1/1 3/2/2 2/3/3
f 2/4/3 6/5/4 5/6/5
f 2/4/3 3/7/2 6/5/4
f 6/8/4 3/9/2 8/10/6
f 1/11/1 2/12/3 8/13/6
f 8/13/6 2/12/3 5/14/5
f 8/15/6 5/16/5 6/17/4
f 8/18/6 3/19/2 1/20/1
f 3/21/7 8/22/7 4/23/7 7/24/7
