# Blender v2.79 (sub 0) OBJ File: 'puck.blend'
# www.blender.org
mtllib puck.mtl
o Cylinder001.001
v 0.000000 0.831057 0.000000
v 2.121300 0.831056 -2.121300
v 0.000000 0.831057 -3.000000
v 3.000000 0.831056 0.000000
v 2.121300 0.831055 2.121300
v 0.000000 0.831056 3.000000
v -2.121300 0.831057 2.121300
v -3.000000 0.831058 0.000000
v -2.121300 0.831058 -2.121300
v 2.121300 -0.913548 -2.121300
v 0.000000 -0.913546 -3.000000
v 3.000000 -0.913548 -0.000000
v 2.121300 -0.913548 2.121300
v 0.000000 -0.913547 3.000000
v -2.121300 -0.913546 2.121300
v -3.000000 -0.913546 -0.000000
v -2.121300 -0.913545 -2.121300
v 0.000000 -0.913547 -0.000000
vt 0.350346 0.652386
vt 0.007968 0.510572
vt 0.208524 0.310007
vt 0.007968 0.794208
vt 0.208533 0.994764
vt 0.492168 0.994764
vt 0.692724 0.794199
vt 0.692724 0.510563
vt 0.492159 0.310008
vt 0.996414 0.328792
vt 0.533099 0.002749
vt 0.996414 0.002749
vt 0.533099 0.328792
vt 0.996414 0.328792
vt 0.533099 0.002749
vt 0.996414 0.002749
vt 0.533099 0.328792
vt 0.996414 0.328792
vt 0.533099 0.002749
vt 0.996414 0.002749
vt 0.533099 0.328792
vt 0.996414 0.328792
vt 0.533099 0.002749
vt 0.996414 0.002749
vt 0.533099 0.328792
vt 0.533099 0.002749
vt 0.996414 0.328792
vt 0.533099 0.328792
vt 0.996414 0.002749
vt 0.996414 0.328792
vt 0.533099 0.002749
vt 0.996414 0.002749
vt 0.533099 0.328792
vt 0.996414 0.328792
vt 0.533099 0.002749
vt 0.996414 0.002749
vt 0.533099 0.328792
vt 0.996414 0.328792
vt 0.533099 0.002749
vt 0.996414 0.002749
vt 0.533099 0.328792
vt 0.350346 0.652386
vt 0.692724 0.510563
vt 0.692724 0.794199
vt 0.492169 0.994764
vt 0.208533 0.994764
vt 0.007968 0.794208
vt 0.007968 0.510573
vt 0.208524 0.310007
vt 0.492159 0.310007
vn 0.0000 1.0000 0.0000
vn -0.0000 0.0000 -1.0000
vn 0.7071 0.0000 -0.7071
vn 1.0000 0.0000 -0.0000
vn 0.7071 -0.0000 0.7071
vn 0.0000 -0.0000 1.0000
vn -0.7071 -0.0000 0.7071
vn -1.0000 0.0000 0.0000
vn -0.7071 0.0000 -0.7071
vn -0.0000 -1.0000 -0.0000
usemtl None
s 1
f 1/1/1 2/2/1 3/3/1
f 1/1/1 4/4/1 2/2/1
f 1/1/1 5/5/1 4/4/1
f 1/1/1 6/6/1 5/5/1
f 1/1/1 7/7/1 6/6/1
f 1/1/1 8/8/1 7/7/1
f 1/1/1 9/9/1 8/8/1
f 1/1/1 3/3/1 9/9/1
f 3/10/2 10/11/3 11/12/2
f 3/10/2 2/13/3 10/11/3
f 2/14/3 12/15/4 10/16/3
f 2/14/3 4/17/4 12/15/4
f 4/18/4 13/19/5 12/20/4
f 4/18/4 5/21/5 13/19/5
f 5/22/5 14/23/6 13/24/5
f 5/22/5 6/25/6 14/23/6
f 6/26/6 15/27/7 14/28/6
f 6/26/6 7/29/7 15/27/7
f 7/30/7 16/31/8 15/32/7
f 7/30/7 8/33/8 16/31/8
f 8/34/8 17/35/9 16/36/8
f 8/34/8 9/37/9 17/35/9
f 9/38/9 11/39/2 17/40/9
f 9/38/9 3/41/2 11/39/2
f 18/42/10 11/43/10 10/44/10
f 18/42/10 10/44/10 12/45/10
f 18/42/10 12/45/10 13/46/10
f 18/42/10 13/46/10 14/47/10
f 18/42/10 14/47/10 15/48/10
f 18/42/10 15/48/10 16/49/10
f 18/42/10 16/49/10 17/50/10
f 18/42/10 17/50/10 11/43/10
