# Blender v2.79 (sub 0) OBJ File: 'robo_posed.blend'
# www.blender.org
mtllib robo.mtl
o robo_Untitled.015
v 0.178438 -0.473123 0.445970
v -0.334796 0.328214 0.694784
v 0.580944 -0.215329 0.445971
v 0.067710 0.586008 0.694785
v 0.115729 0.334276 0.831414
v 0.122428 0.188914 0.831766
v -0.000109 0.110430 0.831767
v -0.129347 0.177309 0.831417
v -0.136047 0.322671 0.831066
v -0.013509 0.401154 0.831065
v 0.116476 0.333101 0.604627
v 0.123176 0.187738 0.604978
v 0.000638 0.109254 0.604979
v -0.128600 0.176133 0.604630
v -0.135300 0.321496 0.604278
v -0.012762 0.399979 0.604277
v 0.178438 -0.473123 -0.462631
v 0.178438 -0.473123 -0.008330
v -0.334796 0.328214 -0.711446
v -0.334795 0.328215 -0.008330
v 0.580944 -0.215329 -0.462632
v 0.580945 -0.215328 -0.008331
v 0.067710 0.586008 -0.711447
v 0.067712 0.586009 -0.008331
v 0.115728 0.334276 -0.848076
v 0.122428 0.188914 -0.848427
v -0.000110 0.110430 -0.848428
v -0.129347 0.177309 -0.848078
v -0.136047 0.322671 -0.847728
v -0.013509 0.401154 -0.847726
v 0.116476 0.333101 -0.621288
v 0.123175 0.187738 -0.621639
v 0.000638 0.109254 -0.621640
v -0.128600 0.176133 -0.621291
v -0.135300 0.321496 -0.620939
v -0.012762 0.399979 -0.620938
v 0.635637 -0.467807 0.212827
v 0.379243 -0.632021 0.212827
v 0.570178 -0.227091 0.212827
v 0.187968 -0.471887 0.212827
v 0.635637 -0.467807 -0.229488
v 0.635637 -0.467807 -0.008331
v 0.379243 -0.632021 -0.229488
v 0.379243 -0.632021 -0.008330
v 0.570178 -0.227091 -0.229488
v 0.570178 -0.227091 -0.008331
v 0.187968 -0.471887 -0.229488
v 0.187968 -0.471887 -0.008330
v -0.188006 -0.527611 0.279967
v 0.169316 -0.464694 0.349382
v -0.453740 0.087544 0.220103
v -0.325326 0.307616 0.275867
v -0.188005 -0.527610 -0.008330
v 0.169317 -0.464694 -0.008330
v -0.453739 0.087544 -0.008330
v -0.325325 0.307616 -0.008330
v -0.188006 -0.527611 -0.296627
v 0.169316 -0.464694 -0.366043
v -0.453740 0.087544 -0.236764
v -0.325326 0.307616 -0.292528
vt 0.839601 0.333081
vt 0.875116 0.333081
vt 0.875116 0.355868
vt 0.839600 0.355868
vt 0.839468 0.264717
vt 0.874984 0.264717
vt 0.874984 0.287505
vt 0.839468 0.287505
vt 0.454507 0.162246
vt 0.454481 0.237099
vt 0.300450 0.237046
vt 0.300476 0.162193
vt 0.831084 0.478073
vt 0.831151 0.455285
vt 0.866666 0.455285
vt 0.866600 0.478073
vt 0.831217 0.546437
vt 0.831151 0.523649
vt 0.866667 0.523649
vt 0.866733 0.546437
vt 0.831085 0.500861
vt 0.866600 0.500861
vt 0.839535 0.310293
vt 0.875050 0.310293
vt 0.831217 0.432497
vt 0.831217 0.409709
vt 0.866733 0.409709
vt 0.866732 0.432497
vt 0.984474 0.938910
vt 0.961686 0.938910
vt 0.950292 0.919175
vt 0.961685 0.899440
vt 0.984473 0.899440
vt 0.995867 0.919175
vt 0.158163 0.236997
vt 0.004132 0.236943
vt 0.004158 0.162091
vt 0.158189 0.162144
vt 0.342721 0.394385
vt 0.271577 0.394385
vt 0.232613 0.245364
vt 0.342721 0.245364
vt 0.452828 0.245364
vt 0.413864 0.394385
vt 0.229307 0.237021
vt 0.229333 0.162169
vt 0.839534 0.378656
vt 0.875050 0.378656
vt 0.874984 0.401444
vt 0.839468 0.401444
vt 0.500158 0.325118
vt 0.500158 0.359752
vt 0.500158 0.394385
vt 0.461094 0.394385
vt 0.461094 0.359752
vt 0.461093 0.325118
vt 0.751294 0.971346
vt 0.762993 0.934074
vt 0.810674 0.934074
vt 0.822373 0.971346
vt 0.547839 0.325118
vt 0.547839 0.359752
vt 0.547839 0.394385
vt 0.166571 0.977524
vt 0.118890 0.977524
vt 0.107191 0.940252
vt 0.178269 0.940252
vt 0.413178 0.560454
vt 0.523286 0.560454
vt 0.633394 0.560454
vt 0.633394 0.635306
vt 0.523286 0.635306
vt 0.413178 0.635307
vt 0.586904 0.325118
vt 0.586904 0.359751
vt 0.586904 0.394385
vt 0.114240 0.394409
vt 0.004132 0.394371
vt 0.043148 0.245364
vt 0.114292 0.245388
vt 0.185435 0.245413
vt 0.224348 0.394447
vt 0.580128 0.663307
vt 0.591522 0.643572
vt 0.614310 0.643572
vt 0.625704 0.663306
vt 0.614311 0.683042
vt 0.591523 0.683042
vt 0.797447 0.148216
vt 0.760502 0.130797
vt 0.744188 0.026712
vt 0.797447 0.004132
vt 0.044034 0.494503
vt 0.004133 0.503236
vt 0.004132 0.458730
vt 0.004132 0.414225
vt 0.044034 0.422958
vt 0.044034 0.458730
vt 0.205788 0.514748
vt 0.148971 0.503877
vt 0.148971 0.458730
vt 0.148971 0.413583
vt 0.205788 0.402712
vt 0.205788 0.458730
vt 0.804554 0.583034
vt 0.788239 0.687118
vt 0.751294 0.704537
vt 0.751294 0.560454
vn -0.5393 0.8421 0.0061
vn 0.5393 -0.8421 -0.0061
vn 0.1364 -0.2130 -0.9675
vn 0.4596 0.8881 -0.0031
vn -0.4596 -0.8881 0.0031
vn -0.9989 -0.0460 -0.0031
vn -0.5393 0.8421 -0.0061
vn 0.4596 0.8881 0.0031
vn 0.5393 -0.8421 0.0061
vn -0.0015 0.0023 -1.0000
vn 0.1364 -0.2130 0.9675
vn -0.8421 -0.5393 0.0000
vn 0.5393 -0.8421 -0.0000
vn -0.4596 -0.8881 -0.0031
vn -0.9989 -0.0460 0.0031
vn 0.9989 0.0460 -0.0031
vn 0.9650 0.2624 -0.0000
vn -0.0000 -0.0000 -1.0000
vn 0.0000 0.0000 1.0000
vn -0.5393 0.8421 0.0000
vn 0.9989 0.0460 0.0031
vn -0.6419 -0.7668 0.0000
vn 0.8421 0.5393 -0.0000
vn -0.0015 0.0023 1.0000
vn -0.2312 -0.0332 0.9723
vn -0.8637 0.5040 0.0000
vn 0.1734 -0.9848 -0.0000
vn -0.9180 -0.3966 0.0000
vn -0.2312 -0.0332 -0.9723
usemtl robo
s off
f 36/1/1 30/2/1 29/3/1 35/4/1
f 33/5/2 27/6/2 26/7/2 32/8/2
f 19/9/3 23/10/3 21/11/3 17/12/3
f 10/13/4 5/14/4 11/15/4 16/16/4
f 7/17/5 8/18/5 14/19/5 13/20/5
f 8/18/6 9/21/6 15/22/6 14/19/6
f 9/21/7 10/13/7 16/16/7 15/22/7
f 31/23/8 25/24/8 30/2/8 36/1/8
f 6/25/9 7/26/9 13/27/9 12/28/9
f 29/29/10 30/30/10 25/31/10 26/32/10 27/33/10 28/34/10
f 3/35/11 4/36/11 2/37/11 1/38/11
f 18/39/12 1/40/12 2/41/12 20/42/12 19/43/12 17/44/12
f 22/45/13 3/35/13 1/38/13 18/46/13 17/12/13 21/11/13
f 34/47/14 28/48/14 27/49/14 33/50/14
f 35/4/15 29/3/15 28/48/15 34/47/15
f 32/8/16 26/7/16 25/24/16 31/23/16
f 37/51/17 42/52/17 41/53/17 45/54/17 46/55/17 39/56/17
f 45/57/18 41/58/18 43/59/18 47/60/18
f 37/51/13 38/61/13 44/62/13 43/63/13 41/53/13 42/52/13
f 38/64/19 37/65/19 39/66/19 40/67/19
f 4/68/20 24/69/20 23/70/20 19/71/20 20/72/20 2/73/20
f 5/14/21 6/25/21 12/28/21 11/15/21
f 44/62/22 38/61/22 40/74/22 48/75/22 47/76/22 43/63/22
f 24/77/23 4/78/23 3/79/23 22/80/23 21/81/23 23/82/23
f 5/83/24 10/84/24 9/85/24 8/86/24 7/87/24 6/88/24
s 1
f 52/89/25 51/90/25 49/91/25 50/92/25
f 51/93/26 52/94/26 56/95/26 60/96/26 59/97/26 55/98/26
f 50/99/27 49/100/27 53/101/27 57/102/27 58/103/27 54/104/27
f 49/100/28 51/93/28 55/98/28 59/97/28 57/102/28 53/101/28
f 57/105/29 59/106/29 60/107/29 58/108/29
