# Blender v2.79 (sub 0) OBJ File: 'robo_posed.blend'
# www.blender.org
mtllib robo.mtl
o robo_Untitled.015
v 0.182512 -0.471567 0.445970
v -0.337615 0.325314 0.694784
v 0.582780 -0.210310 0.445971
v 0.062653 0.586570 0.694785
v 0.112841 0.335262 0.831414
v 0.120794 0.189963 0.831766
v -0.001062 0.110425 0.831767
v -0.130872 0.176186 0.831417
v -0.138825 0.321485 0.831066
v -0.016969 0.401023 0.831065
v 0.113598 0.334093 0.604627
v 0.121551 0.188794 0.604978
v -0.000305 0.109256 0.604979
v -0.130115 0.175017 0.604630
v -0.138068 0.320317 0.604278
v -0.016212 0.399854 0.604277
v 0.182512 -0.471567 -0.462631
v 0.182513 -0.471566 -0.008331
v -0.337615 0.325314 -0.711446
v -0.337614 0.325315 -0.008331
v 0.582780 -0.210310 -0.462632
v 0.582781 -0.210309 -0.008331
v 0.062653 0.586570 -0.711447
v 0.062654 0.586571 -0.008331
v 0.112841 0.335262 -0.848076
v 0.120794 0.189962 -0.848427
v -0.001062 0.110425 -0.848428
v -0.130872 0.176186 -0.848078
v -0.138825 0.321485 -0.847728
v -0.016969 0.401023 -0.847726
v 0.113598 0.334093 -0.621288
v 0.121551 0.188793 -0.621639
v -0.000305 0.109256 -0.621640
v -0.130115 0.175017 -0.621291
v -0.138068 0.320317 -0.620939
v -0.016212 0.399854 -0.620938
v 0.639649 -0.462307 0.212827
v 0.384681 -0.628726 0.212827
v 0.572116 -0.222165 0.212827
v 0.192031 -0.470248 0.212827
v 0.639649 -0.462307 -0.229488
v 0.639649 -0.462307 -0.008330
v 0.384681 -0.628726 -0.229488
v 0.384681 -0.628726 -0.008330
v 0.572116 -0.222165 -0.229488
v 0.572116 -0.222165 -0.008330
v 0.192031 -0.470248 -0.229488
v 0.192031 -0.470248 -0.008330
v -0.183448 -0.529213 0.279967
v 0.173318 -0.463217 0.349382
v -0.454478 0.083627 0.220103
v -0.327968 0.304798 0.275867
v -0.183447 -0.529212 -0.008331
v 0.173319 -0.463216 -0.008331
v -0.454478 0.083627 -0.008331
v -0.327967 0.304798 -0.008331
v -0.183448 -0.529213 -0.296628
v 0.173318 -0.463217 -0.366043
v -0.454478 0.083627 -0.236764
v -0.327968 0.304798 -0.292528
vt 0.910156 0.803711
vt 0.714844 0.803711
vt 0.714844 0.710938
vt 0.910156 0.659180
vt 0.569336 0.659180
vt 0.714844 0.659180
vt 0.663086 0.855469
vt 0.569336 0.855469
vt 0.569336 0.560547
vt 0.663086 0.560547
vt 0.663086 0.659180
vt 0.569336 0.659180
vt 0.714844 0.949219
vt 0.714844 0.803711
vt 0.812500 0.803711
vt 0.812500 0.949219
vt 0.865234 0.560547
vt 0.865234 0.659180
vt 0.041016 0.161133
vt 0.041016 0.083984
vt 0.161133 0.083984
vt 0.161133 0.161133
vt 0.041016 0.006836
vt 0.161133 0.006836
vt 0.041016 0.469727
vt 0.041016 0.392578
vt 0.161133 0.392578
vt 0.161133 0.469727
vt 0.040039 0.315430
vt 0.161133 0.315430
vt 0.040039 0.238281
vt 0.161133 0.238281
vt 0.205078 0.351562
vt 0.271484 0.467773
vt 0.205078 0.428711
vt 0.338867 0.428711
vt 0.338867 0.351562
vt 0.271484 0.313477
vt 0.714844 0.710938
vt 0.910156 0.659180
vt 0.663086 0.855469
vt 0.714844 0.659180
vt 0.663086 0.659180
vt 0.663086 0.560547
vt 0.714844 0.949219
vt 0.812500 0.949219
vt 0.865234 0.659180
vt 0.865234 0.560547
vt 0.041016 0.161133
vt 0.161133 0.083984
vt 0.041016 0.083984
vt 0.161133 0.161133
vt 0.161133 0.006836
vt 0.041016 0.006836
vt 0.041016 0.469727
vt 0.161133 0.392578
vt 0.041016 0.392578
vt 0.161133 0.469727
vt 0.161133 0.315430
vt 0.040039 0.315430
vt 0.161133 0.238281
vt 0.040039 0.238281
vt 0.205078 0.351562
vt 0.205078 0.428711
vt 0.271484 0.467773
vt 0.338867 0.428711
vt 0.338867 0.351562
vt 0.271484 0.313477
vt 0.776367 0.328125
vt 0.744141 0.395508
vt 0.554688 0.424805
vt 0.513672 0.328125
vt 0.517578 0.243164
vt 0.602539 0.258789
vt 0.602539 0.327148
vt 0.517578 0.327148
vt 0.604492 0.424805
vt 0.676758 0.409180
vt 0.676758 0.490234
vt 0.604492 0.490234
vt 0.759766 0.273438
vt 0.759766 0.327148
vt 0.776367 0.328125
vt 0.554688 0.424805
vt 0.744141 0.395508
vt 0.513672 0.328125
vt 0.517578 0.243164
vt 0.602539 0.258789
vt 0.604492 0.424805
vt 0.676758 0.409180
vt 0.759766 0.273438
vt 0.171875 0.523438
vt 0.330078 0.523438
vt 0.330078 0.638672
vt 0.171875 0.638672
vt 0.041992 0.638672
vt 0.041992 0.523438
vt 0.459961 0.523438
vt 0.459961 0.638672
vt 0.239258 0.762695
vt 0.080078 0.762695
vt 0.041992 0.638672
vt 0.278320 0.638672
vt 0.171875 0.523438
vt 0.330078 0.523438
vt 0.041992 0.523438
vt 0.459961 0.523438
vt 0.239258 0.762695
vt 0.041992 0.638672
vt 0.080078 0.762695
vt 0.278320 0.638672
vn -0.8374 -0.5466 -0.0000
vn 0.8374 0.5466 0.0000
vn 0.5466 -0.8374 0.0000
vn -0.5466 0.8374 -0.0000
vn 0.1383 -0.2118 0.9675
vn 0.9985 0.0547 0.0031
vn 0.5466 -0.8374 0.0061
vn -0.4519 -0.8921 0.0031
vn -0.9985 -0.0547 -0.0031
vn -0.5466 0.8374 -0.0061
vn 0.4519 0.8921 -0.0031
vn -0.0015 0.0023 1.0000
vn 0.1383 -0.2118 -0.9675
vn 0.9985 0.0547 -0.0031
vn 0.5466 -0.8374 -0.0061
vn -0.4519 -0.8921 -0.0031
vn -0.9985 -0.0547 0.0031
vn -0.5466 0.8374 0.0061
vn 0.4519 0.8921 0.0031
vn -0.0015 0.0023 -1.0000
vn -0.2754 -0.0430 0.9604
vn -0.3256 -0.0518 0.9441
vn -0.2061 -0.0309 0.9780
vn -0.1860 -0.0274 0.9822
vn 0.1819 -0.9833 -0.0000
vn -0.8680 0.4965 -0.0000
vn -0.9146 -0.4045 -0.0000
vn -0.2754 -0.0430 -0.9604
vn -0.2061 -0.0309 -0.9780
vn -0.3256 -0.0518 -0.9441
vn -0.1860 -0.0274 -0.9822
vn 0.9627 0.2707 0.0000
vn -0.6353 -0.7723 0.0000
vn 0.0000 0.0000 1.0000
vn 0.0000 0.0000 -1.0000
usemtl 03_-_Default_#4
s off
f 20/1/1 18/2/1 1/3/1
f 1/3/1 2/4/1 20/1/1
f 24/5/2 4/6/2 3/7/2
f 3/7/2 22/8/2 24/5/2
f 22/9/3 3/10/3 1/11/3
f 1/11/3 18/12/3 22/9/3
f 4/13/4 24/14/4 20/15/4
f 20/15/4 2/16/4 4/13/4
f 3/10/5 4/17/5 2/18/5
f 2/18/5 1/11/5 3/10/5
f 5/19/6 6/20/6 12/21/6
f 12/21/6 11/22/6 5/19/6
f 6/20/7 7/23/7 13/24/7
f 13/24/7 12/21/7 6/20/7
f 7/25/8 8/26/8 14/27/8
f 14/27/8 13/28/8 7/25/8
f 8/26/9 9/29/9 15/30/9
f 15/30/9 14/27/9 8/26/9
f 9/29/10 10/31/10 16/32/10
f 16/32/10 15/30/10 9/29/10
f 10/31/11 5/19/11 11/22/11
f 11/22/11 16/32/11 10/31/11
f 9/33/12 5/34/12 10/35/12
f 9/33/12 6/36/12 5/34/12
f 9/33/12 7/37/12 6/36/12
f 9/33/12 8/38/12 7/37/12
f 20/1/1 17/39/1 18/2/1
f 17/39/1 20/1/1 19/40/1
f 24/5/2 21/41/2 23/42/2
f 21/41/2 24/5/2 22/8/2
f 22/9/3 17/43/3 21/44/3
f 17/43/3 22/9/3 18/12/3
f 23/45/4 20/15/4 24/14/4
f 20/15/4 23/45/4 19/46/4
f 21/44/13 19/47/13 23/48/13
f 19/47/13 21/44/13 17/43/13
f 25/49/14 32/50/14 26/51/14
f 32/50/14 25/49/14 31/52/14
f 26/51/15 33/53/15 27/54/15
f 33/53/15 26/51/15 32/50/15
f 27/55/16 34/56/16 28/57/16
f 34/56/16 27/55/16 33/58/16
f 28/57/17 35/59/17 29/60/17
f 35/59/17 28/57/17 34/56/17
f 29/60/18 36/61/18 30/62/18
f 36/61/18 29/60/18 35/59/18
f 30/62/19 31/52/19 25/49/19
f 31/52/19 30/62/19 36/61/19
f 29/63/20 30/64/20 25/65/20
f 29/63/20 25/65/20 26/66/20
f 29/63/20 26/66/20 27/67/20
f 29/63/20 27/67/20 28/68/20
usemtl 03_-_Default_#3
s 1
f 52/69/21 51/70/22 49/71/23
f 49/71/23 50/72/24 52/69/21
f 50/73/25 49/74/25 53/75/25
f 53/75/25 54/76/25 50/73/25
f 51/77/26 52/78/26 56/79/26
f 56/79/26 55/80/26 51/77/26
f 49/74/27 51/81/27 55/82/27
f 55/82/27 53/75/27 49/74/27
f 60/83/28 57/84/29 59/85/30
f 57/84/29 60/83/28 58/86/31
f 58/87/25 53/75/25 57/88/25
f 53/75/25 58/87/25 54/76/25
f 59/89/26 56/79/26 60/90/26
f 56/79/26 59/89/26 55/80/26
f 57/88/27 55/82/27 59/91/27
f 55/82/27 57/88/27 53/75/27
usemtl Material.002
s off
f 37/92/3 38/93/3 44/94/3
f 44/94/3 42/95/3 37/92/3
f 37/92/32 42/95/32 46/96/32
f 46/96/32 39/97/32 37/92/32
f 44/94/33 38/93/33 40/98/33
f 40/98/33 48/99/33 44/94/33
f 38/100/34 37/101/34 39/102/34
f 39/102/34 40/103/34 38/100/34
f 41/104/3 44/94/3 43/105/3
f 44/94/3 41/104/3 42/95/3
f 41/104/32 46/96/32 42/95/32
f 46/96/32 41/104/32 45/106/32
f 44/94/33 47/107/33 43/105/33
f 47/107/33 44/94/33 48/99/33
f 43/108/35 45/109/35 41/110/35
f 45/109/35 43/108/35 47/111/35
